<?xml version="1.0" standalone="no"?>
<!DOCTYPE svg PUBLIC "-//W3C//DTD SVG 20010904//EN"
 "http://www.w3.org/TR/2001/REC-SVG-20010904/DTD/svg10.dtd">
<svg version="1.0" xmlns="http://www.w3.org/2000/svg"
 width="1280.000000pt" height="640.000000pt" viewBox="0 0 1280.000000 640.000000"
 preserveAspectRatio="xMidYMid meet">
<metadata>
Created by potrace 1.15, written by Peter Selinger 2001-2017
</metadata>
<g transform="translate(0.000000,640.000000) scale(0.100000,-0.100000)"
fill="#000000" stroke="none">
<path d="M5104 6259 c-22 -25 -9 -57 27 -66 16 -5 30 -11 30 -16 1 -4 -4 -43
-11 -87 -13 -83 -25 -99 -60 -78 -29 18 -70 -4 -70 -38 0 -17 6 -28 19 -31 19
-5 31 -30 31 -68 0 -15 -6 -11 -25 17 -33 49 -55 60 -86 44 -22 -11 -24 -18
-23 -80 l1 -67 -28 45 c-33 53 -43 60 -74 52 -29 -7 -40 -38 -24 -68 19 -36
111 -162 128 -175 8 -7 28 -13 43 -13 41 0 54 34 41 108 -6 31 -10 58 -8 60 1
2 19 -20 39 -48 41 -56 55 -65 91 -56 36 9 40 43 21 160 -19 119 -19 116 -5
116 5 0 7 -4 4 -10 -11 -19 16 -51 70 -81 60 -34 60 -33 44 -77 -15 -42 2 -72
41 -72 34 0 46 18 56 79 8 49 18 52 40 9 30 -58 40 -59 89 -13 40 37 41 63 4
72 -12 4 -32 29 -51 67 -23 46 -26 57 -12 46 51 -42 94 -48 94 -14 0 9 5 12
12 8 6 -4 16 0 22 8 6 8 34 27 62 41 63 32 78 50 70 82 -8 33 -45 41 -87 20
-31 -17 -33 -16 -45 1 -25 36 -35 44 -53 44 -33 0 -44 -24 -27 -63 20 -49 7
-55 -19 -10 -17 31 -26 38 -50 38 -25 0 -31 -4 -33 -27 -2 -15 4 -42 13 -60
14 -31 14 -32 -1 -10 -39 53 -113 7 -86 -53 14 -30 15 -55 4 -55 -5 0 -26 14
-48 30 l-39 31 14 79 15 80 38 0 c31 0 40 5 47 23 12 30 -3 55 -37 63 -15 4
-33 12 -41 18 -8 6 -45 11 -83 12 -53 0 -72 -4 -84 -17z"/>
<path d="M3368 6245 c-9 -21 -7 -30 16 -65 14 -22 24 -40 22 -40 -2 0 -28 11
-56 24 -54 25 -76 25 -97 -2 -25 -31 -15 -52 35 -75 38 -18 46 -26 44 -44 -4
-24 23 -83 38 -83 22 0 8 -18 -19 -23 -36 -7 -87 -50 -107 -90 -23 -42 -13
-100 25 -147 16 -21 33 -51 37 -66 9 -39 22 -54 48 -54 22 0 66 39 66 59 0 6
13 17 29 25 41 21 79 71 87 111 3 19 7 35 8 35 4 0 131 -52 134 -55 1 -1 -2
-14 -8 -29 -23 -61 42 -93 77 -38 10 15 26 34 36 42 10 8 19 33 21 55 2 22 7
52 11 66 4 18 1 31 -10 43 -24 23 -40 20 -68 -15 l-24 -31 -72 31 c-82 35
-103 38 -121 16 -10 -12 -17 -10 -50 18 l-38 32 26 11 c41 17 122 93 122 114
0 10 -32 59 -70 109 -61 79 -75 91 -101 91 -22 0 -32 -6 -41 -25z m69 -422
c14 -21 13 -25 -15 -53 -36 -35 -76 -40 -92 -10 -13 24 -1 51 33 75 28 20 56
16 74 -12z"/>
<path d="M9785 6260 c-11 -4 -35 -14 -53 -20 -52 -20 -56 -38 -26 -130 l27
-81 -38 -39 c-43 -44 -63 -44 -40 0 17 33 11 56 -17 71 -29 15 -57 1 -73 -37
-15 -36 -25 -40 -56 -23 -37 19 -77 -10 -62 -47 3 -8 16 -20 29 -25 13 -4 24
-14 24 -20 0 -7 -7 -8 -17 -4 -42 19 -81 17 -92 -3 -6 -11 -8 -22 -5 -25 3 -3
-10 -17 -29 -31 l-33 -26 -40 21 c-32 17 -50 19 -99 14 -116 -11 -108 -7 -122
-61 -8 -27 -12 -68 -10 -91 4 -42 4 -43 -25 -43 -65 0 -137 -58 -153 -122 -9
-34 -12 -34 -53 0 l-33 28 88 59 c67 46 89 66 91 85 3 29 -65 143 -92 153 -22
9 -83 -19 -88 -40 -4 -14 -29 -24 -105 -41 -55 -13 -105 -28 -112 -35 -6 -6
-11 -23 -11 -38 0 -25 -2 -26 -32 -19 -18 4 -46 15 -63 24 -16 9 -49 16 -72
16 -49 0 -93 -32 -123 -89 -18 -35 -83 -81 -96 -68 -11 11 17 37 38 37 18 0
20 4 13 48 -9 60 -19 71 -45 47 -11 -10 -20 -14 -20 -9 0 4 -19 -11 -43 -34
l-43 -42 -57 20 c-44 15 -62 18 -77 10 -11 -6 -20 -14 -20 -19 0 -11 -30 -7
-67 8 -65 27 -102 -36 -46 -77 l27 -20 -18 -33 -18 -34 -79 0 c-43 -1 -79 3
-79 7 0 8 19 11 55 9 24 -2 83 33 91 54 12 31 -16 47 -70 40 -107 -15 -166
-57 -166 -119 1 -61 47 -89 131 -79 42 5 51 3 47 -8 -3 -10 -22 -14 -59 -14
-52 -1 -94 14 -132 44 -10 8 -30 15 -44 16 -21 0 -29 9 -51 64 -25 62 -25 64
-6 77 50 35 56 51 28 79 -12 12 -24 14 -43 9 -42 -12 -84 -6 -105 15 -28 28
-15 35 29 17 57 -24 93 -21 107 10 16 34 2 54 -50 72 -38 12 -42 17 -42 47 0
25 -8 40 -31 59 -49 42 -81 34 -161 -42 l-37 -35 -43 37 c-24 21 -55 51 -69
67 -28 32 -54 31 -64 -1 -3 -10 -12 -21 -20 -24 -23 -8 -18 -35 8 -45 12 -5
33 -21 47 -36 l25 -28 -25 7 c-71 18 -110 19 -130 1 -38 -34 -26 -59 70 -144
49 -45 99 -81 109 -81 24 0 51 36 44 59 -3 9 -22 31 -42 50 -23 21 -29 31 -16
26 11 -4 52 -9 90 -11 68 -3 71 -4 104 -44 26 -31 31 -44 22 -49 -7 -5 -11
-21 -9 -37 3 -28 5 -29 50 -27 39 1 47 -2 52 -20 10 -41 -41 -49 -106 -16 -47
24 -81 16 -93 -22 -8 -24 13 -48 71 -80 16 -9 37 -30 47 -47 l18 -32 -26 0
c-46 0 -94 -27 -117 -66 -21 -35 -22 -36 -30 -14 -4 12 -17 24 -28 27 -11 3
-20 9 -20 14 0 13 -28 11 -36 -3 -4 -6 -7 -31 -5 -53 2 -55 -14 -70 -66 -56
-21 6 -47 17 -58 25 -23 18 -81 21 -91 5 -10 -16 -24 10 -24 46 0 37 -24 108
-38 113 -16 5 -62 -51 -62 -76 0 -12 9 -41 21 -64 17 -33 18 -42 7 -49 -26
-17 -45 -9 -64 27 -33 63 -103 77 -117 24 -4 -17 6 -34 43 -74 47 -50 48 -52
32 -74 -16 -21 -18 -21 -29 -4 -15 24 -73 52 -110 52 -15 0 -41 -7 -57 -15
-34 -18 -36 -18 -36 -4 0 6 -12 40 -26 76 -21 53 -24 70 -15 85 22 35 13 53
-25 49 -6 -1 -17 6 -24 14 -16 19 -54 19 -70 0 -7 -9 -9 -26 -5 -45 11 -48
-17 -73 -72 -65 -37 5 -44 3 -58 -18 -9 -14 -13 -32 -9 -42 7 -16 215 -125
240 -125 7 0 10 -17 7 -47 -4 -40 0 -55 25 -94 36 -56 103 -94 136 -77 36 18
66 51 66 71 0 27 -58 97 -80 97 -28 0 -44 -34 -29 -62 12 -23 12 -23 -10 -4
-11 11 -21 29 -21 41 0 24 34 59 67 69 29 9 63 -25 63 -63 0 -20 9 -36 27 -51
32 -25 45 -22 54 11 7 29 9 29 88 -15 97 -55 105 -56 141 -4 l32 45 49 -10
c42 -8 50 -14 55 -36 18 -81 46 -111 82 -85 11 8 22 25 24 39 3 23 4 24 26 7
l22 -17 -19 -38 c-22 -43 -19 -63 11 -73 14 -4 29 2 49 22 37 35 51 23 16 -14
-32 -34 -35 -67 -6 -82 23 -13 34 -7 84 49 40 45 49 61 49 91 1 14 5 23 11 20
5 -3 8 -13 7 -23 -5 -29 16 -49 40 -36 11 6 27 8 35 5 21 -8 63 20 63 41 0 9
-10 27 -22 40 -30 32 -16 73 29 85 44 11 60 41 38 74 -10 16 -25 24 -45 24
l-29 0 22 23 c12 13 32 29 45 36 32 17 48 2 69 -68 9 -31 23 -64 31 -73 17
-20 52 -24 68 -8 10 10 81 -24 183 -88 19 -11 38 -19 43 -16 4 3 8 1 8 -5 0
-5 -4 -12 -9 -15 -5 -4 -32 -48 -60 -100 -28 -51 -57 -96 -66 -100 -8 -3 -15
-12 -15 -19 0 -8 -9 -22 -20 -32 -25 -23 -26 -64 -1 -107 26 -44 30 -82 11
-85 -20 -4 -28 3 -74 60 -43 54 -77 60 -103 20 -14 -20 -12 -25 26 -66 39 -42
40 -45 23 -61 -10 -9 -23 -16 -29 -16 -6 0 -37 29 -69 65 -63 72 -91 86 -129
61 -18 -12 -26 -28 -31 -66 -7 -51 -17 -63 -28 -34 -11 28 -6 51 14 69 25 23
26 47 2 68 -28 25 -39 22 -117 -37 l-73 -55 -6 29 c-7 38 -32 44 -130 33 l-76
-9 -8 30 c-17 63 -74 60 -80 -5 -2 -19 -7 -38 -11 -42 -4 -4 -38 23 -74 60
-60 61 -67 72 -67 109 0 24 -6 47 -14 53 -10 8 -55 12 -139 10 -68 -1 -128 1
-133 4 -6 3 -16 2 -24 -3 -10 -6 -21 -3 -32 7 -15 13 -23 14 -43 5 -27 -13
-32 -37 -14 -76 15 -33 -11 -78 -44 -76 -12 1 -43 2 -68 1 -45 -1 -48 -3 -123
-88 -75 -85 -89 -116 -64 -141 21 -21 56 -13 88 21 l32 32 -7 -40 c-9 -53 -20
-62 -87 -67 -44 -4 -58 -1 -58 9 0 22 -44 37 -70 23 -20 -11 -22 -17 -17 -60
6 -46 5 -48 -25 -56 -65 -19 -62 -78 3 -80 56 -1 56 -5 4 -22 -42 -14 -50 -21
-53 -45 -4 -36 14 -42 91 -31 54 8 64 7 80 -9 14 -14 31 -18 69 -16 46 3 52 1
60 -22 20 -54 99 -108 160 -110 32 0 32 -1 -12 -15 -25 -7 -46 -14 -46 -14 -1
0 -4 9 -7 20 -3 11 -16 24 -29 30 -33 14 -61 33 -74 49 -14 18 -89 30 -196 30
-79 1 -88 -1 -102 -21 -26 -36 -19 -56 40 -118 41 -43 54 -64 50 -78 -9 -27 3
-52 25 -52 10 0 19 -5 19 -10 0 -6 11 -15 24 -21 20 -10 31 -8 61 11 43 27 54
20 36 -23 -23 -56 -25 -86 -6 -107 35 -38 74 -16 90 53 4 15 8 27 10 27 2 0
17 -13 34 -29 34 -32 101 -52 145 -44 16 3 50 28 76 54 54 55 75 61 84 24 4
-17 24 -32 71 -55 82 -39 115 -88 115 -171 0 -68 8 -79 58 -86 23 -3 41 -8 40
-12 -2 -19 6 -34 43 -81 l41 -52 -21 -38 c-11 -21 -21 -42 -21 -47 0 -5 15
-24 34 -43 23 -23 30 -37 23 -42 -9 -5 -9 -10 1 -20 19 -19 14 -42 -10 -53
-20 -9 -23 -17 -21 -61 2 -46 -1 -52 -23 -63 -29 -13 -57 -71 -47 -98 11 -33
45 -61 98 -83 65 -26 70 -45 39 -140 -33 -100 -38 -143 -20 -178 18 -35 71
-62 131 -67 33 -3 64 -17 127 -59 86 -58 116 -67 142 -40 21 21 20 37 -4 59
-36 33 -15 97 23 67 22 -18 97 -25 126 -12 51 24 56 28 55 43 -1 8 -5 54 -9
101 -6 74 -5 87 9 92 29 11 44 -15 51 -84 9 -88 13 -100 36 -113 34 -17 69 13
69 59 0 55 -19 161 -32 182 -10 15 -7 28 17 72 38 69 59 112 84 170 13 32 34
57 60 75 22 16 43 36 46 45 8 23 -10 55 -35 63 -19 6 -19 8 -5 28 18 26 19 84
1 116 -15 26 -1 71 22 71 16 0 33 45 26 65 -8 20 -42 29 -58 16 -10 -8 -24 -6
-52 6 l-39 18 55 3 c64 4 80 14 80 52 0 31 -11 42 -66 70 l-39 19 49 1 c32 0
56 -6 67 -16 27 -24 55 -9 86 47 l28 49 55 0 c48 0 60 4 88 30 27 25 31 33 22
49 -8 16 -2 34 30 93 54 100 51 138 -11 138 -23 0 -32 -10 -59 -57 -40 -72
-35 -67 -57 -54 -10 6 -14 11 -9 11 5 0 3 7 -4 15 -14 17 -40 20 -40 5 0 -5
-8 -18 -19 -29 -10 -10 -20 -24 -22 -30 -3 -8 -11 -8 -32 1 -20 10 -26 18 -22
33 2 11 5 26 5 33 0 8 7 11 19 7 27 -8 67 10 74 34 9 37 -19 61 -71 61 -43 0
-52 4 -100 51 -40 38 -57 48 -65 40 -6 -6 -17 -11 -25 -11 -8 0 -34 -14 -59
-30 l-45 -30 20 27 c18 24 79 55 175 87 16 5 15 10 -13 45 l-32 39 -45 -19
c-25 -11 -48 -17 -51 -15 -2 3 3 34 11 69 15 57 15 73 3 143 -13 72 -13 80 2
96 15 15 19 15 36 3 18 -14 18 -16 3 -33 -41 -45 -1 -83 57 -55 20 9 37 15 40
12 2 -2 0 -38 -5 -79 -12 -109 10 -136 83 -106 26 12 45 -30 24 -53 -22 -24
-20 -84 3 -112 18 -22 27 -24 104 -24 67 1 90 4 105 18 11 10 39 21 63 25 l44
7 3 53 c2 28 6 52 9 52 3 0 22 -10 41 -22 33 -20 37 -21 62 -6 17 10 33 12 41
7 26 -16 65 -9 89 16 l23 25 -30 83 c-25 70 -28 85 -16 96 20 19 12 45 -16 49
-13 2 -31 10 -38 18 -36 35 -76 6 -71 -51 2 -31 -2 -41 -25 -58 -21 -16 -30
-18 -39 -9 -7 7 -21 12 -33 12 -11 0 -26 9 -33 20 -23 38 -82 20 -82 -25 0
-18 -5 -21 -28 -17 -37 5 -56 -18 -54 -68 2 -49 -8 -51 -32 -5 l-19 35 27 21
c20 15 26 29 24 48 -4 36 -40 39 -87 7 -46 -32 -49 -32 -44 -2 3 16 13 26 26
28 12 2 34 22 50 46 32 47 47 43 47 -10 0 -38 33 -55 65 -34 14 9 31 16 39 16
23 0 29 33 9 50 -14 11 -23 43 -34 118 l-15 104 22 8 c31 12 34 28 34 159 0
126 -5 141 -50 141 -32 0 -49 -17 -84 -85 l-25 -50 1 70 c1 39 0 77 -3 85 -3
10 5 16 25 18 36 4 126 90 126 120 0 15 5 19 19 15 10 -2 24 1 30 9 32 38 60
91 64 120 6 55 22 27 25 -44 3 -55 0 -74 -17 -102 -12 -18 -21 -45 -21 -60 0
-34 32 -66 60 -59 23 6 44 38 35 53 -9 14 32 50 50 44 20 -8 57 -70 53 -91 -2
-13 -15 -17 -53 -18 -52 -1 -105 -26 -105 -50 0 -16 72 -55 101 -55 17 0 13
-8 -26 -54 l-47 -53 -23 23 c-15 15 -30 21 -44 17 -30 -8 -36 -20 -37 -88 0
-58 -31 -151 -63 -189 -15 -18 -11 -20 52 -31 37 -6 38 -5 58 39 22 51 26 54
44 29 9 -12 9 -24 2 -43 -20 -52 -1 -65 125 -90 l57 -11 3 -42 c3 -35 7 -43
26 -45 30 -4 49 12 57 48 3 16 13 31 21 34 11 4 13 17 10 51 -2 25 -2 45 0 45
2 0 31 -17 64 -37 55 -35 59 -40 57 -73 -2 -28 3 -37 21 -45 16 -7 22 -18 22
-43 0 -40 23 -88 49 -102 30 -16 87 -12 110 8 11 9 27 42 35 72 10 38 16 50
21 38 3 -9 1 -26 -5 -38 -7 -14 -9 -39 -5 -65 4 -28 2 -51 -6 -63 -17 -27 -3
-70 26 -84 16 -7 47 -8 99 -1 42 5 76 6 76 2 0 -3 -21 -9 -46 -12 -136 -15
-172 -217 -50 -277 23 -11 56 -20 73 -20 17 0 37 -8 48 -20 21 -23 57 -26 73
-7 10 12 12 28 12 92 -1 11 2 45 6 76 5 42 2 64 -11 88 -14 28 -14 35 -2 54 8
12 17 34 21 50 5 22 12 27 37 27 50 0 99 30 130 79 16 25 29 53 29 63 0 10 5
18 10 18 6 0 10 -8 10 -18 0 -25 19 -42 47 -42 14 0 34 15 54 40 22 27 49 46
86 60 30 11 56 20 58 20 3 0 -15 -27 -40 -61 -27 -37 -45 -72 -45 -89 0 -39
31 -63 75 -58 31 3 34 2 29 -15 -6 -18 20 -57 37 -57 4 0 28 16 53 35 51 39
74 29 27 -11 -33 -27 -39 -58 -17 -86 19 -26 31 -23 71 19 19 20 35 32 35 26
0 -5 -16 -24 -35 -43 -40 -39 -43 -50 -16 -74 17 -16 22 -16 48 -3 15 8 39 27
52 41 29 31 51 34 51 5 0 -31 -19 -59 -40 -59 -28 0 -45 -36 -31 -66 14 -31
45 -31 175 0 105 25 126 39 126 86 0 31 -15 45 -92 89 -32 18 -58 35 -58 37 0
3 10 9 23 13 15 6 27 4 39 -6 23 -21 48 -9 48 22 0 14 4 25 9 25 14 0 23 37
16 59 -8 25 -32 34 -56 20 -16 -8 -26 -7 -45 6 -34 22 -30 67 6 75 14 3 31 18
38 34 10 19 20 26 35 24 18 -2 23 -11 25 -45 2 -30 9 -46 23 -54 28 -15 59 -2
70 29 5 15 21 33 36 40 35 16 48 15 34 -2 -9 -11 -8 -15 5 -20 9 -3 20 -3 25
0 5 3 31 -8 58 -25 55 -36 96 -40 111 -12 13 25 -5 68 -32 76 -24 8 -23 42 2
50 24 8 128 138 136 171 14 57 -30 123 -101 150 -49 18 -56 29 -25 37 27 7 25
25 -2 37 -13 6 -31 15 -40 22 -15 11 -23 7 -56 -25 -33 -32 -40 -36 -46 -22
-12 33 -7 42 24 37 27 -4 33 2 80 74 50 76 54 92 36 135 -5 11 -1 18 11 22 10
2 25 8 35 12 13 5 24 -9 53 -63 29 -56 42 -71 68 -79 18 -5 32 -15 32 -23 0
-8 5 -24 11 -35 6 -11 17 -38 24 -60 23 -73 59 -94 95 -55 16 18 17 25 6 61
-7 23 -11 42 -9 42 66 32 81 54 57 83 -9 11 -23 13 -51 9 -47 -8 -49 0 -5 18
59 25 61 36 22 115 -19 39 -35 76 -35 81 0 17 19 22 38 10 24 -15 83 -5 113
19 32 27 18 62 -24 62 -24 0 -28 3 -17 10 8 5 28 10 43 10 23 0 31 -7 43 -35
18 -44 18 -60 -3 -80 -12 -13 -26 -15 -58 -11 -33 5 -47 3 -68 -14 -15 -12
-27 -25 -27 -30 0 -5 20 -19 45 -31 42 -21 50 -22 93 -10 53 14 108 52 117 80
3 11 19 21 37 25 40 8 58 23 58 50 0 29 -18 46 -50 46 -30 0 -50 17 -50 42 0
22 55 58 88 58 21 0 23 -3 17 -30 -4 -19 0 -44 14 -75 25 -56 50 -60 74 -10
51 107 -28 226 -140 210 -37 -5 -43 -4 -43 12 0 34 -19 47 -87 58 l-68 11 56
18 c57 18 57 18 78 -3 27 -27 35 -25 156 38 55 28 94 55 100 69 5 12 12 22 16
22 3 0 39 -11 79 -25 67 -23 75 -24 97 -10 13 9 23 20 23 25 0 6 6 10 14 10 8
0 33 16 56 35 43 36 90 47 90 20 0 -8 -20 -37 -45 -65 -25 -28 -45 -59 -45
-70 0 -23 26 -50 49 -50 25 0 42 22 99 128 30 57 53 89 57 82 4 -7 18 -10 31
-7 21 4 24 1 24 -27 0 -17 7 -42 16 -54 14 -20 14 -22 -3 -22 -39 -1 -102 -39
-119 -72 -35 -66 -15 -162 42 -207 32 -25 107 -28 157 -7 64 26 91 107 62 186
-30 83 -31 80 5 80 17 0 44 6 58 14 30 16 62 28 77 30 29 4 55 19 60 37 7 22
32 24 59 4 29 -22 92 -19 116 5 27 27 42 68 34 94 -4 15 4 10 26 -16 17 -21
41 -38 52 -38 24 0 148 86 148 102 0 28 -25 78 -40 78 -8 0 -28 -16 -43 -35
-38 -48 -61 -45 -97 12 -16 26 -32 55 -36 65 -7 22 -51 35 -73 21 -28 -17 -25
-53 9 -100 l33 -45 -54 35 c-33 21 -73 38 -101 42 -44 6 -48 4 -48 -14 0 -11
5 -23 10 -26 6 -4 8 -10 5 -15 -11 -18 -44 14 -60 57 -41 107 -143 123 -237
36 l-26 -25 -7 22 c-9 29 -66 53 -98 41 -30 -12 -62 -52 -77 -97 -6 -19 -16
-34 -21 -34 -16 0 -10 41 11 67 24 30 26 56 6 73 -47 38 -106 -30 -106 -121 0
-32 5 -61 10 -64 20 -12 9 -22 -52 -48 -99 -41 -110 -42 -194 -13 -42 15 -83
25 -91 22 -8 -3 -16 1 -20 10 -7 18 -55 44 -81 44 -11 0 -31 -9 -45 -20 -14
-11 -32 -17 -41 -14 -20 8 -20 11 4 41 17 22 21 23 26 9 5 -13 14 -15 35 -11
33 8 134 -12 166 -33 46 -29 96 26 59 67 -20 22 -21 55 0 72 24 20 98 -8 102
-38 2 -15 -2 -23 -11 -23 -28 0 -73 -94 -58 -119 10 -16 86 1 113 26 29 25 48
75 48 122 0 83 -108 154 -196 129 -43 -11 -91 -58 -96 -91 -2 -12 -10 -22 -18
-22 -11 0 -14 10 -12 40 5 77 -37 125 -108 125 -45 0 -76 -36 -90 -106 l-12
-59 -17 45 c-14 37 -21 46 -45 48 -15 2 -35 -2 -44 -10 -39 -31 -62 -38 -106
-32 -32 5 -46 12 -49 25 -3 11 -1 22 4 25 12 7 11 61 -1 69 -24 15 -109 31
-128 24 -19 -7 -21 -15 -19 -89 2 -70 0 -80 -15 -80 -16 0 -18 10 -18 79 0
102 -14 117 -68 74 -35 -29 -45 -47 -56 -103 -3 -14 -12 -34 -20 -45 -14 -18
-15 -14 -16 52 0 66 -2 74 -25 89 -23 15 -27 15 -49 1 -13 -9 -43 -50 -66 -92
-38 -69 -44 -75 -73 -74 -65 1 -70 13 -15 33 29 10 61 25 71 34 21 18 22 55 2
75 -13 13 -115 37 -159 37 -13 0 -15 6 -10 25 9 38 -11 55 -67 55 -43 0 -49 3
-49 20 0 52 -90 89 -135 57 -16 -12 -22 -10 -57 25 -34 34 -37 41 -27 60 15
27 -4 94 -31 108 -22 12 -87 12 -115 0z m90 -220 c24 -25 48 -40 63 -40 32 0
23 -22 -13 -32 -16 -4 -50 -29 -77 -55 l-49 -48 25 69 c22 63 23 71 11 107 -8
22 -11 39 -7 39 5 0 26 -18 47 -40z m285 -149 c0 -18 -18 -21 -30 -6 -10 13
-9 15 9 15 11 0 21 -4 21 -9z m-447 -59 c-16 -49 -16 -52 2 -73 14 -14 28 -19
47 -17 27 4 28 3 28 -38 0 -54 32 -94 98 -122 44 -19 50 -26 55 -59 4 -20 5
-38 4 -40 -2 -1 -18 17 -35 42 -19 27 -39 45 -51 45 -11 0 -22 8 -25 18 -3 10
-49 51 -101 92 -91 73 -94 75 -74 91 12 9 19 24 18 35 -3 18 38 90 47 82 2 -2
-4 -27 -13 -56z m547 -21 c0 -4 -20 -14 -44 -23 l-44 -16 14 27 c11 23 19 27
44 23 16 -2 30 -7 30 -11z m-123 -38 c21 -5 21 -6 6 -29 -8 -13 -13 -30 -10
-39 8 -19 -11 -31 -26 -16 -6 6 -20 11 -30 11 -15 0 -18 5 -12 23 3 12 9 32
12 45 4 17 10 21 22 16 9 -3 26 -9 38 -11z m1173 -3 c0 -11 -7 -20 -15 -20 -8
0 -15 9 -15 20 0 11 7 20 15 20 8 0 15 -9 15 -20z m-1348 -21 c-3 -27 -16 -43
-29 -38 -14 6 6 71 20 66 7 -2 11 -15 9 -28z m-481 -8 c23 -28 24 -45 3 -65
-22 -22 -38 -20 -73 10 -49 41 -38 83 21 80 18 -1 38 -11 49 -25z m-627 -22
c-10 -12 -39 -31 -64 -42 -56 -24 -80 -45 -80 -69 0 -23 -12 -23 -32 0 -49 55
-23 86 80 98 49 5 67 12 80 30 10 13 21 19 26 13 6 -5 2 -17 -10 -30z m400 22
c36 -39 -24 -85 -83 -65 -29 10 -40 46 -21 70 18 21 83 18 104 -5z m1276 -142
c8 -5 26 -8 40 -7 22 3 35 17 76 84 10 15 11 6 7 -43 -5 -55 -3 -63 16 -75 31
-19 27 -25 -28 -38 l-50 -12 -36 41 c-41 45 -75 53 -96 21 -8 -11 -28 -23 -46
-26 -29 -6 -33 -4 -39 22 -3 16 -13 40 -21 53 -15 23 -15 24 13 17 15 -4 34
-16 42 -27 27 -38 100 -10 75 29 -7 13 -6 26 6 51 l16 34 5 -57 c3 -35 11 -61
20 -67z m572 62 l15 -59 -26 -5 c-35 -7 -37 -3 -23 38 7 18 10 45 6 59 -3 14
-2 26 3 26 5 0 16 -27 25 -59z m1088 54 c0 -3 -9 -14 -20 -25 -19 -19 -20 -19
-20 -2 0 10 3 22 7 25 7 8 33 9 33 2z m-220 -30 c0 -8 -9 -32 -20 -52 -23 -43
-26 -31 -8 27 13 40 28 54 28 25z m-2045 -5 c3 -5 1 -10 -4 -10 -6 0 -11 5
-11 10 0 6 2 10 4 10 3 0 8 -4 11 -10z m1049 -27 c-12 -50 -19 -52 -36 -12
l-17 39 30 0 c27 0 29 -2 23 -27z m-1334 -18 l23 -24 -39 6 c-60 9 -74 20 -44
32 35 14 34 14 60 -14z m595 16 c3 -5 -3 -12 -13 -15 -21 -7 -41 -45 -43 -79
-1 -12 -5 1 -10 28 -5 28 -7 56 -4 63 5 14 61 17 70 3z m1828 -30 c3 -13 -4
-28 -21 -43 l-25 -23 7 25 c4 14 10 35 13 47 6 26 18 23 26 -6z m-3599 -33
c15 -25 -4 -52 -39 -56 -57 -7 -103 78 -52 97 25 10 72 -12 91 -41z m1614 -12
c6 -22 9 -42 8 -43 -6 -6 -66 89 -61 97 11 18 42 -13 53 -54z m-724 -20 c23
-79 20 -84 -21 -32 -21 25 -44 46 -50 46 -7 0 -13 3 -13 8 0 9 53 40 62 35 4
-2 14 -28 22 -57z m1491 33 c0 -7 -8 -15 -17 -17 -18 -3 -25 18 -11 32 10 10
28 1 28 -15z m1623 9 c17 -17 15 -28 -7 -28 -22 0 -35 15 -26 30 8 13 18 13
33 -2z m-188 -55 c0 -13 -3 -13 -15 -3 -8 7 -15 19 -15 27 0 13 3 13 15 3 8
-7 15 -19 15 -27z m-3208 10 c19 -17 18 -18 -23 -28 -51 -12 -69 -36 -51 -65
18 -29 -4 -25 -24 5 -19 29 -12 57 23 85 31 24 51 25 75 3z m140 1 c-13 -9
-22 -26 -22 -41 0 -35 -6 -26 -13 20 -6 36 -5 37 26 37 31 0 31 0 9 -16z
m1088 -25 c0 -22 -25 -26 -33 -5 -6 16 12 38 25 30 4 -3 8 -14 8 -25z m-516
-14 c20 -2 33 -11 43 -30 8 -15 12 -29 9 -32 -12 -12 -76 -8 -76 5 0 6 -6 12
-12 12 -7 0 -29 14 -48 31 l-35 30 45 -7 c25 -4 58 -8 74 -9z m414 -50 c0 -16
-2 -15 -8 5 -4 14 -8 34 -8 45 0 16 2 15 8 -5 4 -14 8 -34 8 -45z m1162 18 c0
-20 -18 -16 -30 7 -15 28 -1 49 17 25 7 -11 13 -25 13 -32z m-2810 -14 c0 -18
-5 -29 -14 -29 -20 0 -28 28 -14 50 16 25 28 16 28 -21z m148 24 c26 -6 27
-12 9 -37 -13 -18 -15 -18 -40 -1 -31 20 -39 62 -9 50 9 -4 27 -10 40 -12z
m895 -30 c16 -13 25 -23 20 -23 -30 1 -56 17 -70 44 -18 35 -20 36 50 -21z
m1547 27 c0 -14 -7 -20 -24 -20 -13 0 -44 -3 -70 -6 -38 -6 -46 -4 -46 9 0 10
12 18 33 21 50 8 81 13 95 15 6 0 12 -8 12 -19z m1130 10 c0 -5 -4 -10 -10
-10 -5 0 -10 5 -10 10 0 6 5 10 10 10 6 0 10 -4 10 -10z m-4320 -27 c0 -9 -8
-21 -17 -28 -9 -7 -22 -32 -30 -56 -27 -93 -8 -182 42 -195 14 -3 25 -8 25
-11 0 -7 -31 -36 -34 -32 -2 2 -23 36 -46 74 -24 39 -51 78 -62 87 -18 16 -18
17 -1 27 10 5 36 43 58 84 25 47 44 73 52 70 7 -3 13 -12 13 -20z m184 12 c33
-14 36 -19 36 -54 l0 -38 -41 20 c-38 19 -43 19 -75 4 -33 -16 -64 -68 -64
-108 0 -10 -5 -21 -11 -25 -8 -5 -10 3 -5 27 4 19 10 51 13 71 3 23 12 39 22
43 10 3 32 21 51 40 19 19 35 35 36 35 1 0 18 -7 38 -15z m163 -65 c-12 -27
-24 -50 -27 -50 -3 0 -6 21 -8 47 -2 26 -8 53 -13 59 -15 18 32 23 53 6 15
-12 14 -17 -5 -62z m2573 65 c0 -8 10 -25 22 -37 12 -12 23 -31 23 -41 3 -30
34 -48 75 -42 l35 5 -40 -18 -40 -19 -39 34 c-22 18 -44 33 -48 33 -5 0 -7 9
-3 20 3 10 1 29 -5 40 -11 21 -6 40 11 40 5 0 9 -7 9 -15z m-799 -62 l32 -46
-25 -22 c-32 -27 -50 -59 -43 -77 3 -8 -8 -27 -26 -43 l-31 -30 17 45 c9 25
24 59 33 76 12 26 13 43 5 92 -5 34 -6 59 -1 56 4 -3 22 -26 39 -51z m-613 22
c-3 -3 -9 2 -12 12 -6 14 -5 15 5 6 7 -7 10 -15 7 -18z m1802 10 c6 -8 8 -20
4 -26 -5 -9 -11 -7 -21 6 -23 33 -9 51 17 20z m-864 -42 c-4 -10 -7 -20 -7
-23 0 -3 -9 -14 -19 -25 -20 -21 -21 -82 -2 -94 10 -7 4 -81 -7 -81 -3 0 -12
4 -19 9 -11 7 -11 12 -1 28 19 31 4 71 -28 75 -32 4 -68 57 -45 65 7 3 18 17
24 32 9 21 12 23 15 9 6 -23 19 -23 35 1 12 17 47 32 57 25 2 -2 0 -11 -3 -21z
m-1956 0 c-1 -10 -7 -31 -15 -48 l-13 -30 -1 48 c-1 35 3 47 14 47 8 0 15 -8
15 -17z m1313 -14 c3 -11 15 -23 26 -26 18 -5 57 -61 48 -69 -2 -2 -19 10 -38
26 -36 31 -59 36 -90 20 -23 -13 -25 -47 -4 -97 8 -20 14 -37 13 -39 -2 -1
-20 13 -41 33 -30 27 -37 40 -33 57 4 17 0 26 -17 34 -22 10 -21 11 5 11 16 1
33 9 40 20 9 15 15 17 25 9 15 -12 43 6 43 28 0 22 17 16 23 -7z m-559 -11
c14 -20 13 -23 -26 -61 -46 -45 -62 -38 -54 23 9 57 52 78 80 38z m226 -68 c0
-9 -3 -20 -7 -23 -9 -9 -43 23 -43 40 0 8 -7 28 -16 46 l-16 32 41 -40 c22
-21 41 -46 41 -55z m-862 68 c-2 -8 7 -12 25 -11 24 2 27 -1 21 -15 -10 -21
-9 -70 1 -101 7 -22 6 -24 -14 -18 -13 3 -34 2 -46 -3 -17 -7 -25 -5 -29 6 -3
8 -12 14 -20 14 -24 0 37 138 62 140 1 0 1 -6 0 -12z m1372 -50 c0 -20 -17 -4
-28 25 l-12 32 20 -25 c11 -14 20 -28 20 -32z m643 29 l15 -23 -67 4 c-36 2
-72 5 -78 7 -20 7 -15 24 5 19 9 -2 31 0 47 5 48 15 62 13 78 -12z m-3168 -13
c18 -11 29 -13 43 -5 15 8 23 6 35 -7 15 -16 12 -22 -34 -75 -45 -51 -53 -56
-72 -46 -32 17 -32 17 -6 38 26 21 26 19 -19 89 -13 20 -13 22 7 22 12 0 32
-7 46 -16z m2170 6 c18 -8 17 -9 -7 -9 -16 -1 -28 4 -28 9 0 12 8 12 35 0z
m-561 -42 c7 -37 1 -47 -19 -27 -9 8 -12 23 -9 37 9 31 20 27 28 -10z m3045 9
c22 -27 25 -76 6 -97 -23 -25 -37 -25 -59 -1 -21 23 -24 74 -6 96 15 19 44 20
59 2z m-3968 -61 c-26 -47 -24 -68 9 -86 19 -10 26 -7 55 24 27 29 34 33 37
18 2 -9 -7 -33 -20 -53 l-24 -36 -73 21 c-72 21 -103 36 -73 36 22 0 54 40 68
85 17 54 20 59 33 46 8 -8 5 -23 -12 -55z m251 24 c4 -41 1 -45 -19 -32 -10 6
-10 15 -1 40 7 18 13 32 14 32 1 0 4 -18 6 -40z m1858 30 c0 -12 -28 -25 -36
-17 -9 9 6 27 22 27 8 0 14 -5 14 -10z m-1454 -68 c-11 -3 -26 4 -33 14 -23
31 -14 36 19 12 28 -20 30 -23 14 -26z m1934 39 c0 -16 -28 -20 -40 -5 -10 12
-8 14 14 14 14 0 26 -4 26 -9z m-3398 -55 c-24 -28 -52 -73 -52 -85 0 -12 28
-41 40 -41 5 0 18 10 30 22 24 26 27 12 4 -20 -25 -36 -91 -26 -114 19 -16 29
-4 55 36 78 24 14 36 30 41 52 6 30 7 31 20 14 11 -16 10 -22 -5 -39z m3686
24 c40 0 61 -4 57 -10 -3 -5 -19 -10 -34 -10 -33 0 -51 -16 -51 -47 0 -16 -6
-23 -19 -23 -11 0 -27 -3 -36 -7 -15 -5 -16 -3 -6 15 13 25 6 66 -15 83 -24
20 -15 29 14 13 15 -8 55 -14 90 -14z m-2109 -16 c-9 -11 -15 -12 -25 -3 -11
9 -12 15 -3 25 9 11 15 12 25 3 11 -9 12 -15 3 -25z m460 -28 c-17 -37 -62
-60 -89 -46 -11 6 -20 13 -20 16 0 2 19 24 43 47 39 39 43 41 60 26 16 -13 16
-19 6 -43z m249 36 c2 -7 -3 -12 -11 -12 -26 0 -47 11 -47 25 0 17 52 5 58
-13z m1180 5 c12 -13 19 -27 15 -30 -12 -13 -23 -7 -38 23 -18 36 -7 39 23 7z
m-206 -4 c20 -18 24 -64 8 -94 -12 -21 -50 -25 -68 -7 -17 17 -15 84 4 102 20
20 33 20 56 -1z m-2946 -18 c10 -8 26 -15 34 -15 11 0 15 -12 15 -48 0 -37 7
-59 29 -92 27 -42 28 -44 10 -57 -17 -13 -22 -8 -59 67 -43 86 -60 99 -109 81
-27 -11 -27 -10 11 34 21 24 41 44 44 45 3 0 14 -7 25 -15z m2236 -40 c32 -29
36 -39 34 -73 -2 -21 -11 -51 -21 -66 -16 -24 -19 -26 -28 -11 -6 11 -5 21 2
28 17 17 13 47 -14 105 -13 28 -21 52 -17 52 4 0 24 -16 44 -35z m-2039 -5
c16 -27 8 -45 -9 -19 -3 6 -15 9 -25 6 -21 -6 -25 13 -7 31 17 17 22 15 41
-18z m2372 14 c0 -5 -13 -25 -28 -44 -25 -31 -28 -32 -21 -10 15 53 25 71 37
67 6 -2 12 -8 12 -13z m-1194 -53 c-22 -40 -42 -12 -25 34 6 15 9 15 21 2 12
-12 13 -19 4 -36z m487 -15 c33 -56 39 -80 22 -91 -15 -9 -44 10 -73 49 -26
34 -27 35 -9 65 9 17 19 31 22 31 3 0 20 -25 38 -54z m261 -60 c9 -11 6 -15
-16 -20 -16 -4 -36 -9 -45 -12 -12 -3 -22 5 -33 30 -17 35 -45 53 -65 41 -5
-3 -10 -4 -10 -1 0 2 -3 11 -6 20 -5 12 1 16 24 16 17 0 34 5 37 10 6 10 84
-48 114 -84z m968 78 c3 -8 2 -24 -3 -35 -8 -17 -12 -18 -26 -7 -12 10 -14 19
-7 36 10 26 27 29 36 6z m463 12 c0 -22 -15 -35 -35 -30 -21 5 -64 -3 -107
-21 -13 -5 -15 -2 -11 14 3 14 16 22 37 26 94 15 116 17 116 11z m-4893 -42
c-9 -10 -38 16 -31 28 4 6 13 4 22 -6 9 -8 13 -19 9 -22z m2412 -13 l20 -39
-29 -4 c-25 -4 -30 -1 -30 16 0 12 -3 31 -6 44 -11 38 24 26 45 -17z m142 33
c30 -5 36 -10 32 -25 -3 -10 2 -30 11 -44 16 -25 16 -25 -14 -25 -34 0 -52
-22 -71 -90 l-13 -45 -11 60 c-10 57 -10 61 12 78 27 21 28 32 9 70 -16 30
-15 31 45 21z m1214 -40 c-17 -57 -18 -58 -45 -44 -22 12 -22 12 16 51 21 21
39 39 41 39 1 0 -4 -21 -12 -46z m-2850 -88 c22 -12 41 -22 43 -23 2 -1 -1
-11 -8 -22 -10 -19 -13 -20 -44 -7 -18 8 -52 17 -75 21 -52 9 -68 38 -40 73
10 13 21 36 24 53 l7 29 26 -51 c20 -38 38 -58 67 -73z m1339 98 c24 -36 17
-78 -12 -82 -21 -3 -22 -1 -12 17 16 31 -4 64 -36 58 -14 -2 -24 0 -24 8 0 35
61 35 84 -1z m1771 4 c39 -26 42 -35 20 -64 -14 -18 -14 -18 -15 9 0 16 -10
38 -25 52 -30 31 -25 31 20 3z m-2222 -63 c31 -9 57 -22 57 -28 -1 -35 -14
-53 -48 -64 -33 -11 -39 -10 -54 8 -10 12 -18 32 -18 45 0 14 -11 32 -30 46
-40 29 -38 41 3 23 17 -8 58 -22 90 -30z m-1126 -13 c7 -29 1 -34 -29 -27 -15
4 -31 20 -41 39 l-15 33 39 -11 c29 -7 41 -17 46 -34z m474 -14 c8 -16 4 -18
-25 -18 -19 0 -43 -3 -53 -7 -12 -5 -8 5 15 30 17 21 32 43 33 50 0 7 5 1 11
-13 5 -14 14 -33 19 -42z m1734 2 c7 0 23 12 34 27 12 14 22 24 24 22 1 -2 8
-20 15 -40 10 -30 10 -41 -3 -65 -17 -33 -19 -75 -6 -121 9 -31 8 -33 -25 -39
-19 -3 -37 -4 -40 -1 -3 2 5 31 17 63 33 90 34 109 9 127 -17 12 -29 13 -57 5
-32 -9 -39 -7 -61 16 -25 25 -25 26 -8 45 19 21 19 21 53 -9 18 -17 40 -30 48
-30z m1039 25 c-6 -16 -24 -21 -24 -7 0 11 11 22 21 22 5 0 6 -7 3 -15z m755
-2 c-7 -10 -14 -19 -15 -21 0 -1 -15 3 -32 9 -42 14 -31 29 20 29 37 0 39 -2
27 -17z m-389 -37 c0 -24 7 -39 22 -50 27 -19 58 -5 59 27 l0 22 10 -23 c13
-33 -5 -60 -45 -68 -70 -13 -95 17 -73 88 15 47 27 49 27 4z m-120 -11 c0 -26
-3 -33 -15 -29 -27 11 -19 53 13 63 1 1 2 -15 2 -34z m-3642 -17 c-4 -28 -27
-34 -53 -14 -20 14 -20 15 5 25 40 16 52 13 48 -11z m2158 -47 c-11 -13 -15
-27 -11 -40 8 -25 49 -28 100 -7 19 8 35 14 35 12 0 -6 -48 -125 -57 -141 -10
-17 -11 -17 -17 3 -12 38 -47 72 -73 72 -25 0 -26 1 -19 53 3 28 6 68 6 87 l0
35 27 -27 c26 -26 26 -28 9 -47z m-344 -7 c-6 -48 -11 -59 -27 -62 -11 -2 -28
-11 -37 -20 -16 -14 -18 -14 -18 2 0 9 -7 30 -15 46 -15 28 -14 29 19 40 18 6
43 22 56 35 13 14 25 23 27 22 1 -2 -1 -30 -5 -63z m1273 -8 c27 -15 41 -17
53 -9 24 15 27 44 6 60 -15 11 -16 13 -2 13 24 0 48 -28 48 -54 0 -32 -37 -76
-63 -76 -12 0 -37 17 -59 41 -29 32 -43 40 -65 37 -24 -2 -27 -7 -24 -28 3
-24 2 -24 -15 -9 -11 9 -29 20 -41 23 -40 13 -26 33 27 40 27 4 52 11 55 17 4
5 14 0 25 -13 10 -13 35 -32 55 -42z m927 30 c13 -19 9 -33 -15 -43 -20 -9
-25 -7 -40 19 -27 47 -23 59 16 46 17 -6 35 -16 39 -22z m-712 9 c-7 -9 -15
-13 -17 -11 -7 7 7 26 19 26 6 0 6 -6 -2 -15z m-2189 -20 c-1 -15 -24 -12 -29
3 -3 9 2 13 12 10 10 -1 17 -7 17 -13z m1453 -1 c11 -28 6 -45 -16 -64 -26
-21 -38 -11 -38 31 0 42 41 67 54 33z m113 -36 c-3 -7 -5 -2 -5 12 0 14 2 19
5 13 2 -7 2 -19 0 -25z m-2230 -35 c13 -10 14 -13 2 -13 -22 1 -61 38 -53 51
5 9 11 6 21 -7 7 -10 21 -25 30 -31z m123 32 c0 -17 -2 -18 -24 -9 -23 9 -20
24 4 24 11 0 20 -7 20 -15z m2994 -8 c17 -13 16 -17 -19 -65 l-37 -51 -29 22
-30 22 28 9 c40 13 53 25 53 52 0 27 8 30 34 11z m-775 -38 l33 -12 -39 -17
c-84 -37 -123 -69 -123 -98 0 -15 7 -38 16 -50 8 -12 12 -22 8 -22 -7 0 -97
80 -102 91 -1 3 14 9 34 12 49 8 64 23 64 64 0 20 4 32 10 28 5 -3 18 -1 27 4
23 13 33 13 72 0z m505 -4 c3 -8 1 -15 -4 -15 -6 0 -10 -9 -10 -19 0 -10 -7
-21 -15 -25 -8 -3 -15 -14 -15 -25 0 -31 -18 -34 -22 -4 -2 17 6 42 22 65 28
41 35 45 44 23z m-1384 -33 c0 -31 8 -45 32 -58 11 -6 14 -14 9 -23 -7 -11
-15 -6 -38 19 -23 25 -28 39 -25 66 5 39 22 36 22 -4z m107 -7 c-2 -36 -6 -45
-21 -45 -13 0 -16 5 -11 18 4 9 12 29 17 45 14 38 17 34 15 -18z m550 39 c-3
-3 -12 -4 -19 -1 -8 3 -5 6 6 6 11 1 17 -2 13 -5z m439 -47 c-30 -10 -40 -36
-31 -85 l6 -37 -24 29 c-13 17 -22 38 -19 48 3 12 -3 21 -20 27 -13 5 -30 16
-37 25 -12 14 -9 15 32 10 39 -6 47 -4 58 14 l13 21 24 -22 23 -22 -25 -8z
m-2521 33 c3 -5 -1 -10 -10 -10 -9 0 -13 5 -10 10 3 6 8 10 10 10 2 0 7 -4 10
-10z m1260 -20 c3 -5 1 -10 -4 -10 -6 0 -11 5 -11 10 0 6 2 10 4 10 3 0 8 -4
11 -10z m2340 0 c3 -6 -6 -15 -21 -20 -31 -12 -37 -9 -28 14 7 18 39 22 49 6z
m-445 -30 c-11 -20 -30 -28 -30 -12 0 11 22 32 32 32 5 0 4 -9 -2 -20z m-527
-17 c9 -3 17 -11 17 -18 0 -8 3 -20 6 -29 5 -13 -1 -16 -25 -16 -25 0 -32 5
-37 28 -3 15 -8 33 -10 41 -3 9 1 11 13 6 10 -4 26 -10 36 -12z m-634 -7 c8
-10 9 -16 1 -21 -13 -8 -30 3 -30 21 0 18 14 18 29 0z m-389 -31 c-17 -20 -37
-19 -49 4 -9 15 -7 17 13 14 13 -3 27 1 32 8 6 10 9 10 12 1 2 -7 -2 -19 -8
-27z m1641 -4 c-7 -12 -15 -21 -20 -21 -17 0 -19 14 -4 37 20 30 41 16 24 -16z
m-921 10 c0 -15 -29 -33 -41 -25 -9 5 -7 11 6 21 22 15 35 17 35 4z m617 -23
c23 -18 12 -61 -18 -72 -58 -20 -118 48 -72 82 20 14 67 10 90 -10z m-1407
-160 c0 -4 -20 4 -44 18 -42 24 -44 26 -36 59 4 20 6 45 4 58 -3 12 13 -12 35
-53 22 -41 40 -78 41 -82z m1573 80 c-14 -16 -15 -25 -6 -61 7 -23 15 -51 19
-61 5 -13 4 -17 -4 -12 -6 4 -19 33 -28 66 -9 33 -23 65 -30 71 -8 6 -14 24
-14 40 l0 29 40 -26 c39 -26 40 -28 23 -46z m-1943 52 c0 -5 -7 -10 -15 -10
-8 0 -15 5 -15 10 0 6 7 10 15 10 8 0 15 -4 15 -10z m205 -39 c-3 -12 -11 -21
-17 -21 -5 0 -7 7 -4 16 3 9 6 23 6 32 0 12 3 13 11 5 6 -6 8 -20 4 -32z m505
17 c0 -21 -17 -41 -29 -34 -7 5 -7 13 2 26 13 23 27 26 27 8z m515 -7 c5 -9
-31 -41 -47 -41 -14 0 -8 23 10 36 21 16 29 17 37 5z m-666 -90 c10 -6 21 -8
24 -5 3 3 14 1 24 -5 15 -9 11 -10 -21 -11 -22 0 -47 -7 -58 -17 -23 -21 -23
-65 1 -94 18 -23 18 -23 -2 -34 -15 -7 -21 -22 -24 -55 -3 -25 -6 -46 -8 -48
-8 -8 -55 32 -55 46 0 9 -17 34 -37 56 l-38 39 36 -21 c49 -29 77 -28 91 3 10
22 9 29 -9 46 -17 18 -19 25 -10 50 9 22 8 36 -6 63 -16 36 -16 36 11 50 26
14 28 13 45 -19 9 -19 26 -39 36 -44z m251 65 c0 -25 -12 -46 -26 -46 -17 0
-18 14 -4 41 12 22 30 25 30 5z m137 -8 c11 -13 28 -35 38 -50 16 -26 16 -28
-12 -63 l-28 -35 -6 27 c-3 16 -13 42 -22 60 -20 39 -22 83 -4 83 8 0 23 -10
34 -22z m393 -25 c0 -16 -6 -23 -19 -23 -10 0 -49 -32 -86 -72 -55 -57 -69
-68 -76 -55 -5 8 -29 28 -54 44 -25 15 -45 30 -45 33 0 3 9 11 20 17 16 11 21
10 30 -7 7 -12 21 -20 37 -20 49 0 173 85 173 119 0 14 1 14 10 1 5 -8 10 -25
10 -37z m-1876 -12 c-5 -42 -3 -52 15 -70 33 -33 61 -23 100 34 l33 50 -3 -55
c-3 -47 -8 -57 -31 -72 -24 -15 -28 -24 -28 -63 0 -25 -4 -45 -10 -45 -5 0
-21 18 -35 40 -31 50 -63 67 -94 51 -27 -15 -27 -54 0 -92 11 -16 18 -29 15
-29 -2 0 -11 -3 -19 -6 -11 -4 -17 10 -26 63 -7 37 -14 77 -16 88 -4 17 1 20
33 20 36 0 37 1 38 40 1 39 18 95 29 95 3 0 3 -22 -1 -49z m546 10 c0 -5 -12
-16 -26 -26 l-27 -17 19 26 c19 26 34 33 34 17z m1493 -11 c3 -12 -6 -41 -21
-69 l-27 -49 -18 24 c-10 14 -13 25 -7 29 5 3 10 19 10 34 0 47 52 73 63 31z
m327 -45 c0 -8 -6 -15 -14 -15 -8 0 -24 -9 -37 -19 -24 -19 -24 -19 -36 2 -11
20 -9 23 30 34 57 15 57 15 57 -2z m-3750 -46 c0 -38 -24 -35 -28 4 -2 19 1
27 12 27 11 0 16 -10 16 -31z m100 5 c0 -14 -4 -23 -10 -19 -5 3 -10 15 -10
26 0 10 5 19 10 19 6 0 10 -12 10 -26z m1910 23 c0 -2 -10 -12 -21 -23 -22
-19 -22 -19 -10 4 10 18 31 31 31 19z m130 -14 c0 -9 20 -36 45 -60 25 -24 44
-43 42 -43 -2 0 -24 7 -50 16 -34 11 -47 21 -47 35 0 10 -9 23 -20 29 -32 17
-24 32 23 39 4 0 7 -7 7 -16z m658 -83 c9 0 24 8 35 18 14 12 12 5 -8 -26 -25
-38 -29 -41 -41 -25 -7 10 -14 22 -14 27 0 5 -7 18 -16 28 -14 15 -15 20 -3
35 13 15 15 13 23 -20 6 -22 16 -37 24 -37z m-2928 29 c0 -11 -11 -11 -29 0
-7 5 -10 14 -6 20 5 9 10 9 21 0 8 -6 14 -15 14 -20z m2013 -4 c-18 -37 -27
-43 -39 -23 -6 9 39 58 53 58 2 0 -5 -16 -14 -35z m1688 25 c26 -14 25 -60 -2
-94 -15 -20 -20 -35 -15 -57 5 -27 3 -29 -25 -29 l-30 0 20 28 c27 38 37 105
17 121 -22 18 -48 10 -63 -19 l-13 -25 0 23 c0 42 18 62 56 62 19 0 44 -5 55
-10z m315 -17 c-10 -10 -19 5 -10 18 6 11 8 11 12 0 2 -7 1 -15 -2 -18z
m-1259 -8 c19 -8 48 -15 63 -15 l27 0 -30 -34 c-27 -31 -32 -32 -59 -22 -43
16 -93 60 -84 74 10 16 39 15 83 -3z m643 -5 c0 -5 -2 -10 -4 -10 -3 0 -8 5
-11 10 -3 6 -1 10 4 10 6 0 11 -4 11 -10z m500 -10 c0 -4 -14 -11 -30 -15 -17
-4 -40 -16 -50 -28 -21 -22 -25 -13 -14 28 4 16 15 20 50 22 24 1 44 -2 44 -7z
m-1711 -26 c-6 -7 -15 -11 -21 -8 -5 3 -4 12 3 20 6 7 15 11 21 8 5 -3 4 -12
-3 -20z m927 12 c10 -8 16 -17 12 -21 -8 -8 -48 13 -48 25 0 14 13 12 36 -4z
m294 -13 c0 -14 -48 -53 -64 -53 -26 0 -35 22 -19 46 12 18 23 23 49 21 19 -1
34 -7 34 -14z m847 -8 c2 -11 -9 -35 -25 -52 l-27 -33 -25 20 -25 19 35 36
c37 38 63 42 67 10z m-3913 -37 c-3 -5 -14 -2 -25 8 -10 9 -16 21 -13 26 3 5
14 2 25 -8 10 -9 16 -21 13 -26z m-319 -9 c17 -6 15 -8 -10 -8 -16 -1 -45 -10
-62 -21 l-33 -20 0 35 0 35 43 -6 c23 -4 51 -10 62 -15z m3499 -4 c4 -17 17
-27 39 -34 28 -8 24 -9 -35 -10 l-67 -1 22 35 c26 41 33 43 41 10z m-3400 -7
c-9 -32 -9 -32 -39 -12 -29 19 -19 34 23 34 20 0 22 -4 16 -22z m3860 8 c-3
-8 -12 -17 -19 -20 -8 -3 -19 -23 -26 -46 -11 -37 -15 -41 -38 -35 -34 9 -33
6 -23 51 7 35 12 39 52 50 60 16 60 16 54 0z m-906 -34 c5 -16 -20 -15 -43 1
-27 20 -10 43 18 24 11 -7 23 -19 25 -25z m-2625 -33 c-7 -8 -13 -26 -13 -40
0 -34 -14 -52 -36 -47 -24 4 -32 48 -10 48 10 0 16 9 16 24 0 13 7 29 15 36 8
7 15 20 15 29 0 10 5 8 14 -9 11 -21 11 -28 -1 -41z m2457 52 c0 -5 3 -17 7
-26 5 -14 2 -16 -18 -10 -32 10 -34 12 -19 30 14 17 30 20 30 6z m-491 -21 c7
-4 9 -10 4 -13 -5 -3 -22 3 -39 14 -27 19 -28 20 -4 14 14 -4 31 -11 39 -15z
m1339 -74 c-17 -65 -27 -86 -40 -86 -9 0 -20 -4 -23 -10 -8 -12 -55 -13 -73
-1 -8 4 -12 19 -10 32 3 21 7 23 43 21 52 -4 81 23 71 64 -6 22 -2 31 21 50
15 12 29 21 31 19 2 -1 -7 -41 -20 -89z m-3484 62 c5 -9 7 -20 4 -23 -10 -10
-48 14 -48 31 0 20 29 14 44 -8z m381 8 c-39 -7 -77 -16 -84 -20 -9 -6 -12 -4
-9 5 5 14 62 26 128 26 19 0 3 -5 -35 -11z m210 -5 c3 -5 1 -12 -4 -15 -5 -3
-11 1 -15 9 -6 16 9 21 19 6z m213 -24 c11 -12 28 -39 37 -59 8 -21 26 -45 40
-54 21 -14 25 -24 25 -65 0 -42 -3 -49 -19 -49 -27 0 -32 10 -47 99 -13 77
-29 101 -66 101 -18 0 -25 29 -11 43 11 11 18 8 41 -16z m2214 2 c32 -23 29
-29 -19 -43 -21 -7 -23 -4 -23 28 0 42 2 43 42 15z m117 -50 c-22 -17 -25 -17
-36 -2 -19 24 -17 28 20 38 41 13 50 -10 16 -36z m-360 -16 c31 -13 38 -13 68
1 l33 16 0 -29 c0 -15 -10 -41 -21 -55 l-22 -28 -43 50 c-24 27 -59 57 -79 66
-19 9 -35 22 -35 27 0 6 15 1 33 -11 17 -12 47 -28 66 -37z m-3170 8 c-16 -45
-3 -95 32 -131 l31 -30 -27 10 c-14 5 -45 10 -67 10 -34 0 -47 -6 -80 -40 -63
-63 -64 -47 -2 31 51 64 56 74 50 107 -3 21 -2 42 2 47 6 9 64 34 70 30 1 -1
-3 -16 -9 -34z m176 1 c1 -12 14 -35 28 -50 15 -16 27 -30 27 -33 0 -3 -27 -4
-60 -4 -93 1 -109 32 -52 98 22 24 55 18 57 -11z m209 -48 c39 -9 41 -32 3
-28 -18 1 -48 3 -68 3 l-36 1 1 49 1 49 37 -34 c21 -18 49 -36 62 -40z m2423
70 c22 -6 22 -7 6 -35 -21 -36 -27 -36 -41 -4 -21 45 -14 52 35 39z m1453 -19
c0 -19 -20 -29 -32 -17 -8 8 -7 16 2 26 14 17 30 12 30 -9z m-3552 -49 c9 -2
42 -8 72 -12 l55 -7 -52 -17 c-29 -9 -59 -23 -68 -30 -17 -14 -16 -14 -34 55
-13 50 -13 79 0 43 6 -15 18 -29 27 -32z m1891 -17 c-15 -54 -26 -68 -35 -45
-4 11 0 30 10 46 9 16 16 36 16 46 0 13 3 15 11 7 7 -7 7 -23 -2 -54z m329 16
c-13 -19 -26 -35 -30 -35 -13 0 -9 10 13 41 29 41 44 36 17 -6z m700 -9 c-2
-13 -12 -22 -24 -24 -20 -3 -21 -1 -10 32 8 27 13 32 24 24 7 -6 12 -21 10
-32z m-2603 12 c7 -17 18 -22 37 -21 26 2 25 0 -19 -43 -46 -43 -46 -43 -61
-23 -13 18 -22 20 -61 16 l-46 -6 53 24 c43 20 52 28 52 49 0 33 31 35 45 4z
m2075 -66 c0 -39 -35 -74 -68 -70 -46 5 -42 77 6 102 35 19 62 5 62 -32z
m-3305 -1 c3 -6 -1 -13 -8 -18 -8 -4 -19 -18 -26 -30 -14 -28 -35 -30 -26 -4
3 11 1 22 -5 26 -5 3 -10 13 -10 21 0 16 65 20 75 5z m3757 -48 c11 -14 -26
-37 -48 -29 -19 7 -18 19 8 52 21 26 23 26 27 9 2 -11 7 -25 13 -32z m-3103
-40 c11 -42 40 -69 64 -60 7 2 30 -4 52 -14 l40 -18 -47 6 c-41 5 -51 2 -78
-20 -42 -36 -59 -27 -53 27 8 64 -23 94 -104 103 -34 3 -60 10 -57 15 3 5 26
6 50 2 47 -7 103 9 105 30 1 15 14 -19 28 -71z m110 50 c-7 -10 -15 -20 -16
-22 -2 -2 -3 5 -3 17 0 14 6 22 16 22 14 0 15 -3 3 -17z m1555 -19 c4 -11 1
-14 -11 -12 -9 2 -18 9 -21 16 -6 18 25 15 32 -4z m-1976 -14 c18 0 32 -6 36
-15 8 -23 -63 -9 -89 17 -20 20 -20 20 2 9 12 -6 35 -11 51 -11z m1734 -72
c-4 -94 -12 -102 -12 -10 0 38 -3 79 -6 89 -6 15 -4 16 7 5 9 -8 12 -34 11
-84z m1039 63 l16 -28 -44 -22 c-76 -37 -123 -21 -70 25 24 22 69 53 77 53 3
1 12 -12 21 -28z m-1826 -31 c-20 -22 -35 -26 -35 -8 0 20 33 49 44 38 6 -6 3
-16 -9 -30z m2659 32 c2 -4 -1 -18 -8 -30 -11 -21 -14 -22 -25 -8 -11 13 -11
19 -1 31 14 16 26 19 34 7z m-3029 -22 c3 -5 17 -10 31 -10 23 0 31 -10 18
-22 -8 -9 -84 24 -78 33 7 12 21 11 29 -1z m195 -14 c0 -7 6 -19 14 -25 11
-10 11 -17 -5 -48 -11 -21 -19 -44 -19 -52 0 -30 -10 -2 -21 55 -6 32 -15 65
-21 72 -8 9 -3 12 21 12 20 0 31 -5 31 -14z m-882 -39 c56 -52 -10 -107 -69
-58 -19 16 -22 22 -11 32 6 7 12 24 12 37 0 20 4 22 23 17 12 -4 32 -17 45
-28z m247 6 c63 -7 73 -12 51 -25 -13 -7 -30 -7 -58 3 -47 15 -73 4 -73 -32 0
-18 -7 -26 -30 -31 -16 -3 -31 -5 -33 -4 -8 8 12 33 38 48 19 11 30 25 30 39
0 16 4 20 18 14 9 -4 35 -9 57 -12z m3563 5 c-3 -7 -13 -15 -24 -17 -16 -3
-17 -1 -5 13 16 19 34 21 29 4z m-2673 -28 c-20 -22 -31 -20 -22 5 4 8 14 15
23 15 16 0 16 -2 -1 -20z m125 -7 c0 -16 -9 -43 -20 -61 -17 -28 -23 -31 -40
-22 -19 10 -18 13 18 60 20 27 38 49 40 49 1 1 2 -11 2 -26z m-270 -58 c0 -9
8 -18 18 -21 62 -20 92 -40 92 -62 0 -15 7 -26 19 -29 14 -4 24 -25 39 -91 20
-86 20 -88 1 -147 -10 -33 -23 -78 -29 -100 l-10 -40 -65 -3 c-36 -2 -65 -1
-65 2 0 3 27 19 60 36 111 56 87 130 -41 130 -30 0 -34 6 -23 34 9 23 70 21
83 -3 6 -10 18 -22 27 -25 22 -8 64 19 64 42 0 26 -97 193 -127 220 -17 16
-34 22 -50 19 -18 -3 -23 -1 -19 10 3 8 6 21 6 29 0 8 5 14 10 14 6 0 10 -7
10 -15z m-617 -71 c4 -4 7 -12 7 -18 0 -6 -16 6 -35 27 -41 44 -41 44 -17 49
11 3 20 -5 27 -23 6 -15 13 -31 18 -35z m300 48 c15 -6 15 -10 5 -24 -12 -15
-16 -15 -48 8 l-34 24 29 -1 c17 0 38 -4 48 -7z m-403 -17 c-10 -12 -16 -13
-26 -4 -20 16 -18 19 12 19 22 0 25 -2 14 -15z m246 0 c18 -13 18 -14 -4 -8
-12 3 -25 9 -28 14 -8 14 10 11 32 -6z m307 -143 c10 -15 59 -16 75 0 9 9 12
7 12 -10 0 -15 -9 -26 -24 -32 -36 -13 -42 -31 -18 -51 25 -19 29 -49 8 -49
-8 0 -21 -2 -28 -5 -11 -4 -19 14 -32 68 -14 63 -22 105 -25 140 -1 4 -8 7
-16 7 -18 0 -18 -1 -3 41 l12 34 16 -65 c8 -36 19 -71 23 -78z m-1175 90 c3
-9 -2 -13 -14 -10 -9 1 -19 9 -22 16 -3 9 2 13 14 10 9 -1 19 -9 22 -16z m106
-39 c-54 -47 -74 -42 -34 10 13 16 29 24 46 23 26 -1 26 -1 -12 -33z m418 -16
c18 -41 19 -50 7 -58 -23 -14 -31 -10 -24 11 5 15 0 22 -17 29 -38 14 -53 38
-38 56 23 28 50 13 72 -38z m1108 18 c-19 -22 -7 -110 19 -146 22 -29 22 -29
1 -29 -23 0 -22 -3 -42 101 -14 74 -14 76 6 85 27 13 32 9 16 -11z m2590 15
c0 -5 -9 -10 -20 -10 -11 0 -20 5 -20 10 0 6 9 10 20 10 11 0 20 -4 20 -10z
m-1010 -69 c-13 -25 -52 -28 -70 -6 -10 13 -9 15 12 15 14 0 33 9 44 21 16 18
20 18 22 6 2 -9 -2 -25 -8 -36z m-2980 20 c-11 -21 -30 -37 -30 -25 0 8 30 44
37 44 2 0 -1 -9 -7 -19z m665 9 c25 -9 25 -11 10 -34 -14 -22 -14 -30 0 -91 8
-36 15 -69 15 -73 0 -4 -34 -6 -75 -4 l-75 4 0 47 c0 45 1 48 24 44 13 -3 38
2 55 11 33 18 41 49 21 87 -12 22 -11 23 25 9z m-175 -31 c0 -5 -4 -9 -10 -9
-5 0 -10 7 -10 16 0 8 5 12 10 9 6 -3 10 -10 10 -16z m650 0 c0 -24 -23 -21
-28 4 -2 10 3 17 12 17 10 0 16 -9 16 -21z m-316 -16 c4 -16 10 -37 13 -48 4
-15 -3 -12 -31 15 -34 32 -35 36 -19 47 24 19 30 16 37 -14z m-684 -29 c29
-47 16 -84 -29 -84 -39 0 -47 14 -21 40 22 22 24 29 11 50 -10 15 -6 30 9 30
5 0 18 -16 30 -36z m1465 -112 c-49 -10 -61 -58 -22 -85 21 -15 19 -16 -45
-16 -52 -1 -68 2 -68 13 0 7 -10 17 -22 21 -21 7 -19 8 12 14 26 4 36 12 38
29 3 18 10 22 40 22 20 0 44 4 52 9 8 6 19 7 25 3 5 -4 1 -8 -10 -10z m-765
-44 c0 -4 -9 -8 -19 -8 -19 0 -31 18 -31 48 0 12 5 11 25 -8 14 -13 25 -27 25
-32z m570 -4 c0 -2 -9 -4 -21 -4 -11 0 -18 4 -14 10 5 8 35 3 35 -6z m-377
-33 c15 -6 8 -13 -33 -35 l-52 -28 -31 31 c-30 29 -30 31 -10 31 12 0 24 4 28
9 5 9 62 4 98 -8z m627 -21 c0 -5 -7 -7 -15 -4 -8 4 -15 8 -15 10 0 2 7 4 15
4 8 0 15 -4 15 -10z m-1033 -6 c-3 -3 -12 -4 -19 -1 -8 3 -5 6 6 6 11 1 17 -2
13 -5z m24 -71 c-5 -18 -15 -29 -29 -31 -19 -3 -22 1 -22 32 0 26 5 36 20 41
11 3 20 12 21 18 0 7 4 2 9 -10 5 -12 5 -34 1 -50z m717 36 c-2 -6 -8 -10 -13
-10 -5 0 -11 4 -13 10 -2 6 4 11 13 11 9 0 15 -5 13 -11z m-613 -153 c-10 -25
-14 -49 -10 -55 3 -6 3 -11 -2 -11 -15 1 -56 74 -43 78 6 2 23 15 38 27 34 29
39 18 17 -39z m225 55 c0 -5 -7 -11 -14 -14 -10 -4 -13 -1 -9 9 6 15 23 19 23
5z m200 -6 c0 -2 -5 -16 -12 -30 -12 -26 -19 -30 -32 -18 -4 4 -33 17 -64 30
l-57 22 83 0 c45 1 82 -1 82 -4z m219 -11 c6 -6 -43 -22 -51 -17 -5 2 -8 11
-8 19 0 11 7 13 28 8 15 -4 29 -8 31 -10z m86 6 c15 -7 9 -9 -25 -9 -33 -1
-41 2 -30 9 18 12 28 12 55 0z m-551 -68 c-6 -4 -13 -23 -17 -42 -3 -19 -11
-48 -18 -65 l-12 -30 -7 35 c-4 19 -11 56 -14 82 -7 45 -6 47 21 50 31 4 65
-18 47 -30z m400 -19 c4 -14 26 -31 62 -48 63 -30 65 -40 5 -30 -34 6 -161 84
-161 99 0 2 20 3 44 2 37 -1 46 -5 50 -23z m-270 -12 c3 -4 3 -11 0 -14 -8 -8
-34 3 -34 14 0 11 27 12 34 0z m127 -56 l29 -31 -30 -11 c-29 -11 -30 -11 -30
21 0 17 -7 41 -15 52 -8 12 -11 24 -8 28 4 4 11 -1 16 -11 5 -10 22 -32 38
-48z m-401 -80 c0 -8 -7 -15 -15 -15 -9 0 -12 6 -9 15 4 8 10 15 15 15 5 0 9
-7 9 -15z m280 -5 c0 -19 -11 -26 -23 -14 -8 8 3 34 14 34 5 0 9 -9 9 -20z
m260 -21 c0 -5 -8 -9 -18 -9 -10 0 -36 -15 -58 -34 -33 -29 -37 -37 -28 -53 8
-12 22 -17 43 -16 25 1 30 -2 21 -12 -20 -25 -50 -24 -80 2 -50 41 -37 103 21
103 15 0 37 8 50 19 23 18 49 18 49 0z m155 -51 c28 -13 30 -19 13 -36 -15
-15 -29 -15 -65 -1 l-28 10 25 19 c30 23 24 22 55 8z m-457 -14 c12 -8 22 -21
22 -28 0 -11 -9 -10 -45 3 -40 14 -43 17 -28 28 21 16 24 16 51 -3z m-115 -8
c26 -20 9 -26 -56 -19 -84 9 -73 23 23 31 8 1 23 -5 33 -12z m222 -116 c26
-27 27 -30 9 -30 -13 0 -24 11 -31 30 -6 17 -10 30 -9 30 1 0 15 -13 31 -30z
m-305 -12 c-1 -28 -2 -30 -11 -15 -6 10 -8 25 -5 33 9 24 16 16 16 -18z m550
11 c0 -5 -7 -9 -15 -9 -15 0 -20 12 -9 23 8 8 24 -1 24 -14z m-376 -16 c24
-25 24 -28 8 -37 -9 -5 -22 -14 -29 -20 -6 -6 -30 -22 -52 -36 -46 -27 -53
-56 -18 -70 19 -8 17 -9 -15 -9 -21 -1 -38 1 -38 4 0 14 32 79 50 102 11 14
17 30 14 35 -3 5 -3 20 0 34 9 33 48 32 80 -3z m324 -15 c20 -20 13 -28 -13
-16 -20 9 -28 8 -44 -6 -12 -11 -21 -14 -25 -7 -4 6 8 17 26 25 42 18 42 18
56 4z m109 -105 c-8 -21 -18 -46 -21 -55 -6 -21 -26 -24 -26 -4 0 7 -7 27 -15
42 -23 44 -19 53 28 56 23 2 44 2 46 1 2 -2 -3 -20 -12 -40z m-353 -40 c-49
-78 -48 -78 -76 -50 l-24 24 48 22 c27 12 54 31 61 42 6 10 15 19 20 19 4 0
-9 -26 -29 -57z m244 -119 c-2 -1 -18 6 -36 18 -34 21 -39 37 -20 71 11 21 13
19 35 -32 13 -29 22 -55 21 -57z m-374 -10 c10 -27 7 -32 -25 -36 -23 -4 -37
1 -54 18 -28 28 -23 34 31 34 29 0 44 -5 48 -16z m-97 -36 c-3 -8 -6 -5 -6 6
-1 11 2 17 5 13 3 -3 4 -12 1 -19z m333 13 c0 -4 -26 -16 -57 -26 -32 -10 -64
-20 -70 -23 -8 -2 -13 5 -13 20 0 22 5 25 47 27 26 1 49 4 52 7 8 8 41 4 41
-5z m7 -128 c-3 -3 -11 -2 -17 2 -9 6 -9 10 1 16 14 8 27 -7 16 -18z m-307 -8
c0 -29 -42 -125 -54 -125 -30 0 -36 25 -21 78 15 49 17 52 68 61 4 0 7 -6 7
-14z m320 -108 c0 -9 -26 5 -60 33 -23 19 -21 19 17 -2 24 -13 43 -27 43 -31z
m-206 10 c16 -12 17 -16 5 -35 -24 -39 -56 -22 -45 24 7 27 15 29 40 11z"/>
<path d="M4276 6224 c-20 -19 -20 -31 -1 -68 8 -15 15 -31 15 -33 0 -3 -20 -2
-45 1 -38 6 -46 5 -51 -11 -3 -10 -10 -26 -15 -35 -17 -33 -11 -51 16 -46 14
3 25 2 25 -2 0 -3 26 -4 58 -2 58 4 59 4 71 -27 22 -53 58 -83 89 -77 23 5 30
1 44 -24 26 -46 75 -72 126 -67 73 8 152 79 152 138 0 29 -46 89 -69 89 -28 0
-101 -58 -101 -80 0 -26 28 -40 59 -29 l26 9 -24 -20 c-13 -12 -34 -20 -45
-18 -19 3 -66 60 -66 79 0 19 42 49 68 49 31 0 72 36 72 63 0 21 -81 34 -117
18 -18 -8 -29 -9 -37 -1 -5 5 -38 10 -73 10 -60 0 -63 1 -78 31 -34 64 -69 83
-99 53z m184 -183 c0 -6 -4 -13 -10 -16 -5 -3 -10 1 -10 9 0 9 5 16 10 16 6 0
10 -4 10 -9z"/>
<path d="M4887 6225 c-9 -9 -17 -21 -17 -26 0 -22 22 -49 38 -49 38 0 56 -46
28 -69 -44 -37 -129 -26 -97 13 18 21 9 102 -13 124 -14 15 -19 13 -51 -24
-19 -21 -36 -48 -37 -59 -8 -108 44 -175 136 -175 89 0 166 62 166 134 0 36
-30 105 -53 124 -26 22 -81 26 -100 7z"/>
<path d="M3650 6218 c-41 -6 -72 -16 -85 -28 -19 -20 -19 -20 3 -65 24 -49 53
-60 72 -26 8 15 26 21 87 26 43 4 88 13 101 21 24 16 29 53 10 72 -14 14 -92
14 -188 0z"/>
<path d="M3890 6177 c-20 -11 -25 -20 -24 -51 2 -48 17 -65 44 -48 21 13 160
17 160 5 0 -5 -14 -16 -30 -25 -48 -28 -36 -88 17 -88 93 0 137 125 67 191
-23 21 -36 24 -117 27 -63 2 -100 -2 -117 -11z"/>
<path d="M3042 6120 c-34 -14 -37 -34 -24 -149 14 -128 25 -144 91 -135 83 11
120 24 140 50 43 55 34 162 -19 216 -26 25 -35 28 -97 27 -37 0 -78 -4 -91 -9z
m98 -90 c0 -5 -7 -10 -16 -10 -8 0 -12 5 -9 10 3 6 10 10 16 10 5 0 9 -4 9
-10z m33 -79 c-5 -9 -20 -17 -32 -19 -18 -3 -21 2 -21 28 0 21 8 38 23 50 22
19 22 18 31 -12 6 -19 6 -36 -1 -47z"/>
<path d="M8386 6079 c-12 -18 -13 -26 0 -62 8 -22 13 -42 11 -44 -2 -2 -24 13
-48 32 -65 51 -119 45 -119 -15 0 -14 16 -66 36 -116 20 -49 37 -98 38 -109 1
-14 9 -21 29 -23 15 -2 27 1 27 7 0 6 9 11 20 11 31 0 32 20 6 75 -14 27 -23
52 -21 54 2 2 23 -13 47 -33 23 -20 53 -39 66 -43 28 -7 62 21 62 52 0 29 -77
217 -93 227 -21 14 -45 9 -61 -13z"/>
<path d="M2408 5979 c-20 -11 -25 -73 -8 -84 19 -12 10 -34 -19 -49 -28 -15
-28 -15 -40 24 -14 47 -53 80 -95 80 -49 0 -175 -26 -191 -40 -18 -15 -19 -37
-2 -73 11 -24 47 -39 47 -19 0 8 108 32 144 32 23 0 20 -17 -4 -25 -33 -11
-44 -42 -25 -72 14 -21 22 -24 48 -19 17 3 39 14 49 23 17 15 18 15 18 -6 0
-47 66 -102 105 -87 12 4 15 0 13 -22 -2 -20 -10 -28 -28 -32 -17 -3 -31 -18
-45 -48 -11 -23 -24 -41 -30 -39 -5 2 -13 23 -17 47 -10 56 -33 82 -73 79 -17
-2 -58 10 -95 27 -36 17 -86 39 -113 49 -46 17 -48 17 -67 0 -38 -34 -20 -68
49 -95 l35 -14 -74 -12 c-41 -7 -76 -11 -78 -10 -1 2 3 15 9 30 26 55 -36 163
-106 186 -24 8 -45 8 -73 1 -94 -26 -144 -111 -113 -194 14 -37 70 -96 105
-111 17 -7 41 -25 54 -38 l23 -25 -93 -7 c-93 -7 -128 -22 -128 -53 0 -7 31
-46 68 -85 64 -68 68 -75 58 -101 -16 -43 1 -61 65 -67 41 -4 69 -15 114 -45
33 -22 62 -43 63 -47 7 -16 32 -7 32 11 0 11 5 23 10 26 22 14 9 46 -30 71
-22 15 -39 29 -37 31 3 2 37 -12 76 -31 40 -19 79 -32 86 -30 15 6 49 53 50
69 0 6 20 11 45 12 l45 2 -37 -18 c-45 -21 -78 -49 -78 -66 0 -31 36 -56 89
-62 l54 -6 -52 -19 c-55 -21 -75 -54 -51 -83 19 -23 51 -18 144 24 55 26 88
36 92 29 4 -6 26 -19 50 -30 40 -17 44 -22 44 -53 0 -41 18 -53 91 -62 58 -7
56 -14 -9 -28 l-47 -11 -28 49 c-50 87 -125 111 -178 58 -35 -35 -38 -75 -9
-131 22 -44 24 -50 11 -50 -5 0 -16 17 -24 39 -19 46 -63 84 -88 76 -14 -5
-18 0 -21 22 -3 24 -9 29 -48 36 -25 5 -47 11 -49 13 -2 2 8 17 23 34 14 17
26 38 26 46 0 16 -35 54 -49 54 -5 0 -34 -28 -64 -62 -38 -42 -69 -67 -99 -78
-35 -12 -44 -21 -46 -43 -6 -53 28 -69 94 -45 26 9 48 8 111 -4 61 -13 69 -16
40 -17 -52 -1 -97 -45 -96 -93 1 -61 16 -131 31 -142 8 -6 17 -19 21 -28 9
-24 38 -23 44 2 6 23 19 26 27 8 3 -10 8 -9 18 3 8 9 37 20 68 24 65 9 90 20
90 41 0 8 12 19 27 25 66 25 80 75 43 156 -10 24 -15 45 -10 48 12 7 40 -35
40 -60 0 -25 18 -45 40 -45 9 0 21 -13 27 -30 l11 -30 95 0 95 0 -10 -37 c-6
-21 -7 -57 -4 -80 4 -33 2 -43 -8 -43 -18 0 -25 28 -14 58 4 12 3 33 -2 47
-12 32 -64 35 -80 6 -14 -28 -12 -86 4 -126 l15 -35 -30 15 c-16 9 -34 13 -39
10 -5 -3 -6 18 -3 50 7 63 -12 95 -54 95 -26 0 -146 -78 -216 -141 -37 -33
-40 -39 -27 -52 8 -8 29 -18 47 -22 34 -7 47 2 101 74 26 35 62 42 62 12 0
-10 -11 -39 -25 -65 -38 -72 -30 -116 21 -116 25 0 54 34 54 62 0 24 41 24 70
0 21 -17 22 -20 7 -48 -8 -16 -34 -46 -57 -66 -32 -29 -41 -44 -38 -64 7 -60
66 -57 112 6 17 22 33 37 36 33 4 -5 12 -38 19 -74 10 -53 10 -71 0 -86 -27
-44 23 -73 63 -36 26 23 31 11 20 -42 -8 -36 -7 -55 4 -80 12 -30 17 -33 56
-33 24 1 74 -5 111 -12 78 -16 100 -9 105 33 4 29 -28 57 -65 57 -20 0 -23 5
-21 40 2 51 -20 77 -50 61 -11 -6 -23 -24 -27 -41 -11 -50 -26 -35 -19 19 6
43 4 50 -14 60 -11 6 -27 8 -35 5 -11 -4 -18 13 -29 72 -18 88 -15 106 16 102
17 -2 24 -17 41 -83 11 -44 24 -86 28 -92 11 -18 52 -16 71 3 19 19 19 13 1
101 -29 138 -46 158 -141 158 -47 0 -68 5 -81 18 -16 16 -16 17 14 17 19 0 43
10 60 24 26 23 28 29 26 90 -2 39 1 66 7 66 6 0 10 -18 10 -40 0 -49 22 -96
50 -105 11 -3 20 -13 20 -22 0 -31 36 -74 78 -95 34 -16 55 -19 94 -15 58 7
98 30 98 56 0 10 2 20 6 23 3 3 53 -16 112 -43 119 -54 143 -58 172 -29 24 24
25 39 6 85 -18 42 -13 44 19 9 18 -20 27 -23 42 -15 10 5 33 15 50 21 41 15
103 82 104 113 2 42 -3 72 -17 100 -10 18 -12 33 -6 44 9 14 11 14 21 -5 20
-37 53 -27 132 39 41 34 77 66 80 71 3 5 8 8 10 6 3 -1 21 15 42 38 l37 41 52
-14 c68 -17 101 -6 96 35 -2 21 -13 32 -46 48 -42 20 -43 20 -23 38 44 40 33
96 -19 96 -21 0 -36 -10 -61 -41 -31 -39 -34 -41 -73 -33 -23 4 -51 7 -64 8
-14 1 -20 6 -17 14 3 8 5 20 5 27 0 8 37 41 82 74 l83 60 28 -35 c33 -40 55
-42 129 -14 l52 20 -47 -48 c-26 -26 -47 -57 -47 -68 0 -28 37 -74 59 -74 9 0
49 20 88 44 70 43 72 44 89 25 21 -23 37 -24 54 -4 10 12 9 26 -4 69 -10 30
-24 57 -33 60 -9 4 -34 -3 -57 -15 l-41 -21 33 35 c46 47 42 82 -8 82 -19 -1
-46 -4 -60 -9 -23 -7 -23 -6 4 13 42 28 51 48 32 74 -26 37 -152 167 -162 167
-6 0 -18 -6 -28 -13 -23 -17 -15 -46 26 -93 l30 -34 -89 0 c-81 0 -92 2 -111
23 -12 13 -19 26 -16 30 3 3 1 22 -6 41 -14 43 -63 76 -115 76 -49 0 -80 -33
-124 -134 -28 -65 -32 -81 -23 -102 7 -14 20 -24 32 -24 16 0 19 -5 15 -23 -4
-16 3 -35 24 -64 24 -33 29 -49 25 -72 -8 -40 -19 -32 -34 26 -14 56 -35 83
-65 83 -32 0 -51 -28 -66 -95 -18 -89 -24 -92 -42 -28 -21 75 -45 98 -105 98
-26 0 -60 -4 -76 -8 -24 -7 -28 -5 -22 8 9 24 -11 55 -36 55 -11 0 -35 -16
-52 -35 -29 -31 -56 -45 -56 -29 0 4 14 22 30 41 36 41 37 53 7 82 l-24 22
-41 -42 c-23 -23 -42 -37 -42 -32 0 5 14 22 30 38 32 31 39 65 15 85 -22 19
-49 4 -104 -59 -54 -63 -61 -84 -34 -113 9 -10 11 -18 5 -18 -6 0 -14 5 -17
10 -13 21 -35 8 -56 -36 -32 -64 -41 -65 -39 -3 4 81 2 87 -24 104 -36 24 -58
7 -127 -97 -62 -95 -69 -117 -43 -142 28 -29 54 -17 96 44 17 25 17 24 17 -46
1 -80 12 -97 58 -92 23 2 38 18 81 83 29 44 57 86 61 94 5 8 13 11 18 8 6 -4
-8 -43 -33 -94 -45 -92 -52 -121 -32 -141 18 -18 2 -14 -52 13 -55 28 -80 31
-98 13 -26 -26 0 -88 37 -88 10 0 11 -9 6 -32 -4 -18 -8 -52 -8 -74 l-2 -41
-28 20 c-15 12 -25 27 -22 35 11 30 -14 52 -63 53 l-47 1 50 17 c45 16 50 21
50 47 0 26 -5 30 -43 39 -45 11 -47 25 -2 25 30 0 50 16 50 41 0 30 -28 42
-95 40 l-65 -2 6 39 c8 54 -7 77 -74 112 -34 17 -49 29 -37 29 11 1 34 -8 50
-19 37 -25 66 -25 95 -2 19 15 21 22 12 39 -10 18 -8 22 13 27 48 12 104 119
90 174 -7 30 -5 28 44 -36 37 -48 73 -54 97 -17 12 18 11 26 -6 58 -28 53 -17
63 35 32 52 -30 76 -31 98 -7 20 22 22 43 5 60 -8 8 -8 15 -1 24 6 7 13 24 15
38 3 22 7 25 38 22 71 -6 120 38 120 108 0 49 -35 76 -116 89 -56 9 -77 9
-109 -3 -42 -15 -58 -42 -31 -52 20 -8 21 -24 1 -24 -18 0 -20 -16 -4 -26 8
-4 10 -26 6 -61 -7 -62 -10 -68 -33 -59 -13 5 -15 14 -10 41 12 61 -26 99 -70
70 -21 -13 -24 -24 -24 -73 l-1 -57 -29 33 c-23 25 -30 42 -30 73 0 38 -6 47
-67 106 -50 47 -67 71 -68 91 0 21 -6 28 -24 30 -15 3 -30 -3 -38 -14 -7 -10
-16 -14 -20 -10 -4 4 -1 11 6 15 16 10 6 31 -15 31 -8 0 -28 23 -45 50 -17 28
-39 55 -49 60 -22 12 -21 12 -42 -1z m49 -216 c-15 -15 -17 -15 -23 1 -8 21
16 40 30 26 7 -7 4 -16 -7 -27z m216 -150 c9 -14 -8 -43 -24 -43 -5 0 -33 22
-63 49 -29 27 -62 54 -72 60 -12 7 -15 14 -8 17 6 3 20 11 30 18 17 13 24 9
74 -36 30 -28 59 -57 63 -65z m-851 90 c11 -10 18 -30 18 -53 0 -38 38 -88 58
-76 5 3 7 -6 4 -20 -6 -33 18 -57 84 -84 49 -20 53 -24 40 -39 -7 -9 -27 -42
-42 -73 -24 -47 -39 -64 -88 -93 -37 -22 -71 -35 -93 -35 -30 0 -34 2 -23 15
10 12 8 22 -9 50 -12 20 -21 39 -21 44 0 4 33 8 72 9 80 3 118 20 118 53 0 11
-25 47 -55 78 -39 42 -54 63 -49 75 8 21 -33 113 -53 120 -8 3 -24 1 -35 -5
-16 -9 -19 -17 -14 -42 5 -30 5 -31 -9 -13 -22 30 -18 62 11 85 32 25 61 27
86 4z m1296 -40 c2 -8 -5 -13 -17 -13 -21 0 -35 13 -24 24 10 10 36 3 41 -11z
m-576 -140 c17 -19 17 -21 -8 -44 -35 -32 -64 -95 -64 -142 0 -28 7 -44 26
-62 l27 -25 -32 0 c-43 0 -81 -38 -81 -83 0 -37 31 -73 89 -102 23 -12 30 -20
23 -27 -12 -12 -37 2 -90 51 -25 23 -43 31 -70 31 -20 0 -48 3 -60 7 -22 5
-19 9 29 32 66 32 83 56 66 91 -15 30 -44 37 -162 39 -53 1 -96 6 -102 12 -16
16 -43 3 -43 -21 0 -17 -6 -32 -27 -69 -2 -2 -10 2 -18 9 -22 18 -13 49 30
112 19 28 35 56 35 64 0 17 12 18 28 2 14 -14 42 6 42 31 0 9 5 22 11 28 16
16 4 43 -18 43 -10 0 -36 9 -58 19 l-40 18 63 7 c35 4 69 9 76 12 7 3 17 -10
24 -29 17 -47 15 -65 -8 -72 -11 -4 -28 -17 -36 -31 -15 -22 -15 -26 0 -49 22
-33 45 -32 91 5 21 17 42 30 46 30 7 0 1 -59 -7 -69 -2 -2 1 -12 7 -22 9 -18
35 -20 112 -10 11 2 9 35 -4 48 -7 7 -4 35 10 93 12 45 21 94 21 107 l0 24 28
-19 c15 -11 35 -29 44 -39z m1238 -117 c0 -24 7 -39 21 -50 33 -23 73 -86 61
-98 -7 -7 -16 -1 -28 18 -23 36 -33 44 -60 44 -34 0 -49 -25 -35 -57 11 -24
11 -25 -4 -13 -38 32 -39 50 -4 122 18 37 36 68 41 68 4 0 8 -15 8 -34z
m-1125 -8 c45 -21 42 -88 -5 -103 -13 -4 -23 -18 -27 -36 -5 -28 -26 -39 -38
-19 -3 6 -2 10 2 10 11 0 53 84 53 105 0 8 -9 19 -21 26 -17 9 -25 7 -45 -12
-23 -21 -24 -22 -18 -4 17 47 47 57 99 33z m1123 -186 c6 -18 -15 -14 -22 4
-4 10 -1 14 6 12 6 -2 14 -10 16 -16z m-536 -112 c-5 -33 -4 -32 -27 -24 -14
6 -13 9 6 30 12 13 23 24 24 24 1 0 0 -13 -3 -30z m152 -8 c3 -10 13 -44 21
-76 15 -57 15 -59 -5 -73 -11 -8 -20 -22 -20 -31 -1 -14 -2 -15 -9 -2 -14 27
-43 169 -37 185 8 21 43 19 50 -3z m-249 -39 c-24 -17 -35 -17 -35 0 0 20 9
25 32 19 20 -5 20 -6 3 -19z m488 -49 c5 -27 -12 -74 -27 -74 -5 0 -6 17 -2
38 3 20 6 43 6 50 0 22 18 12 23 -14z m-369 -45 c3 -18 1 -44 -6 -59 -9 -22
-18 -27 -42 -26 -33 1 -43 17 -45 68 -1 22 4 28 29 33 16 4 32 11 36 16 9 15
21 2 28 -32z m521 -19 c3 -5 -1 -10 -9 -10 -9 0 -16 5 -16 10 0 6 4 10 9 10 6
0 13 -4 16 -10z m-705 -62 c0 -32 6 -58 15 -68 13 -15 11 -20 -21 -51 -23 -21
-33 -27 -27 -14 13 26 14 113 1 121 -5 3 -17 -1 -27 -10 -10 -9 -20 -13 -24
-10 -8 9 64 94 75 88 4 -3 8 -28 8 -56z m481 35 c7 -7 0 -13 -25 -17 -37 -7
-65 -35 -86 -86 -7 -16 -16 -30 -21 -30 -15 0 -10 20 16 58 14 20 25 47 25 59
0 13 7 23 18 25 30 6 62 2 73 -9z m-197 -44 c-4 -6 -12 -31 -18 -55 l-11 -43
-33 40 c-29 34 -31 39 -14 39 11 0 25 7 32 15 15 17 55 21 44 4z m394 -35 c-9
-9 -21 -13 -27 -9 -16 10 -3 25 22 25 20 0 20 -1 5 -16z m-97 -31 c7 -20 6
-30 -4 -41 -13 -12 -14 -8 -13 27 0 23 2 41 4 41 1 0 7 -12 13 -27z m-101 -21
c0 -21 -18 -42 -37 -42 -9 0 -7 8 5 30 19 34 32 39 32 12z m-605 -22 c7 -12
-12 -40 -26 -40 -10 0 -12 34 -2 43 9 10 21 9 28 -3z m275 -21 c0 -6 -4 -7
-10 -4 -5 3 -10 11 -10 16 0 6 5 7 10 4 6 -3 10 -11 10 -16z m-982 -58 c-12
-4 -28 17 -28 39 0 10 7 7 20 -10 11 -15 15 -26 8 -29z m985 39 c19 0 19 -2
-8 -30 -31 -32 -53 -38 -73 -18 -9 9 -7 17 10 35 12 13 28 21 36 18 7 -3 23
-5 35 -5z m135 -47 c-9 -10 -19 -29 -23 -42 -5 -15 -10 -20 -17 -13 -7 7 -5
25 7 57 16 41 20 45 33 31 14 -14 14 -17 0 -33z m-1220 14 c2 -10 -3 -17 -12
-17 -18 0 -29 16 -21 31 9 14 29 6 33 -14z m907 -47 c12 -13 8 -15 -34 -12
l-48 4 23 25 c13 14 24 31 25 37 0 6 5 0 10 -14 6 -13 16 -31 24 -40z m-162
-8 l36 -17 -25 -22 c-22 -20 -25 -21 -30 -5 -3 9 -10 27 -15 40 -10 27 -11 26
34 4z m613 3 c31 -21 50 -71 34 -90 -18 -22 -56 -18 -80 7 -25 27 -26 73 -2
87 22 14 24 13 48 -4z m-297 -72 c34 6 39 3 84 -49 26 -31 47 -62 47 -70 0
-24 -45 -16 -85 16 -48 38 -82 47 -102 28 -13 -14 -18 -14 -44 -1 -15 8 -48
13 -71 11 -39 -3 -43 -6 -46 -31 -3 -22 1 -30 17 -34 12 -3 21 -10 21 -15 0
-13 -52 0 -62 15 -4 7 -8 28 -8 48 0 65 52 86 102 42 25 -22 88 -9 88 17 0 11
-4 20 -10 20 -5 0 -10 5 -10 10 0 7 7 7 21 -1 12 -6 38 -9 58 -6z"/>
<path d="M768 5810 c-85 -44 -101 -61 -87 -99 12 -30 5 -51 -17 -51 -14 0 -15
8 -10 54 6 47 4 58 -13 75 -25 25 -54 27 -71 6 -7 -8 -15 -47 -19 -87 -6 -70
-7 -73 -32 -76 -38 -4 -63 -35 -55 -66 8 -34 40 -41 95 -21 24 8 46 13 48 11
3 -2 -6 -22 -18 -44 -20 -34 -21 -42 -10 -56 7 -9 22 -16 31 -16 32 0 50 -12
66 -41 17 -34 42 -37 150 -14 85 18 104 24 104 36 0 5 25 9 56 9 68 0 120 23
140 62 l15 28 47 -26 c26 -15 51 -31 57 -36 5 -4 21 -8 36 -8 23 0 34 10 64
61 21 33 41 57 45 52 4 -4 18 -33 31 -63 40 -98 57 -106 150 -68 68 27 89 45
89 75 0 33 -25 39 -81 20 -55 -20 -59 -20 -59 -6 0 5 15 16 33 24 51 21 62 39
47 75 -10 25 -16 29 -39 24 l-26 -6 23 16 c24 19 29 45 10 64 -17 17 -35 15
-95 -10 -48 -20 -54 -20 -70 -6 -10 9 -45 30 -78 48 -44 23 -68 30 -89 26 -33
-7 -66 -33 -66 -52 0 -7 -8 -20 -17 -29 -15 -16 -17 -15 -30 9 -12 23 -19 26
-72 26 -57 0 -59 1 -65 31 -3 17 -19 44 -35 60 -41 41 -86 38 -183 -11z m109
-95 c-19 -30 -27 -35 -56 -32 -19 1 -36 7 -38 12 -4 12 72 53 99 54 15 1 14
-3 -5 -34z m428 -48 c12 -10 14 -16 7 -21 -13 -8 -52 10 -52 24 0 14 23 12 45
-3z m-181 -42 c-4 -10 -12 -14 -23 -9 -9 4 -42 9 -73 12 -32 2 -58 9 -58 14 0
6 19 7 48 4 32 -4 55 -1 72 8 21 12 26 12 33 1 4 -7 4 -21 1 -30z m396 0 c-7
-8 -20 -15 -29 -15 -13 1 -13 3 3 15 26 19 42 19 26 0z m-535 -83 c53 -4 71
-17 40 -28 -9 -4 -29 -1 -46 6 -34 14 -79 1 -79 -23 0 -11 -89 -41 -97 -33 -1
1 14 30 33 64 l35 62 29 -22 c19 -13 49 -23 85 -26z m275 18 c0 -13 -12 -12
-32 4 -10 7 -15 16 -12 19 9 8 44 -11 44 -23z m-510 0 c0 -5 -4 -10 -9 -10 -5
0 -12 -10 -15 -22 -8 -28 -34 -64 -41 -56 -3 3 7 26 22 51 27 45 43 58 43 37z"/>
<path d="M3839 5783 c-42 -46 -79 -111 -79 -138 0 -21 16 -35 93 -85 99 -64
126 -71 154 -41 38 41 85 130 78 149 -14 46 -59 34 -95 -23 -22 -35 -40 -46
-40 -22 0 6 9 23 20 37 25 31 25 52 2 73 -24 22 -41 21 -58 0 -12 -16 -13 -14
-7 16 5 26 2 37 -12 48 -25 18 -28 17 -56 -14z m42 -106 c-8 -8 -11 -7 -11 4
0 20 13 34 18 19 3 -7 -1 -17 -7 -23z"/>
<path d="M44 5790 c-47 -18 -50 -34 -26 -151 28 -135 46 -179 71 -179 22 0 51
40 51 70 0 11 -11 37 -24 58 -35 54 -41 81 -20 89 12 4 31 -9 70 -50 29 -32
59 -57 68 -57 17 0 56 34 56 49 0 17 -35 51 -114 110 -86 65 -102 72 -132 61z"/>
<path d="M4622 5743 c-66 -71 -75 -88 -63 -112 18 -32 169 -161 190 -161 25 0
128 116 136 152 8 33 -17 84 -44 93 -11 3 -21 16 -23 28 -2 15 -10 22 -25 22
-13 0 -28 6 -35 13 -7 7 -30 12 -52 12 -34 0 -45 -6 -84 -47z m68 -78 c-7 -8
-17 -12 -22 -9 -5 3 -1 15 9 26 20 22 32 6 13 -17z m85 -65 c-12 -14 -22 -17
-29 -10 -6 6 -3 16 9 30 12 14 22 17 29 10 6 -6 3 -16 -9 -30z"/>
<path d="M5753 5738 c-11 -13 -28 -36 -38 -51 -17 -27 -21 -28 -66 -22 -55 8
-85 1 -93 -22 -10 -24 19 -60 54 -68 37 -8 38 -19 5 -41 -28 -18 -32 -36 -12
-56 6 -7 13 -20 15 -28 7 -33 22 -32 56 4 20 20 43 50 53 66 10 18 23 28 33
26 63 -18 99 -17 119 3 12 12 21 26 21 31 0 21 -41 50 -70 50 -36 0 -36 0 -10
47 17 32 18 40 6 58 -19 28 -48 30 -73 3z"/>
<path d="M6725 5606 c-21 -31 -8 -58 38 -83 l32 -18 -68 -5 c-71 -5 -87 -15
-87 -58 0 -28 41 -46 88 -38 27 4 32 2 32 -15 0 -33 44 -69 85 -69 43 0 73 26
109 98 44 86 41 91 -105 171 -42 22 -83 41 -92 41 -9 0 -24 -11 -32 -24z"/>
<path d="M6129 4844 c-10 -13 -9 -28 8 -87 18 -62 20 -79 10 -126 -10 -48 -10
-54 8 -67 41 -30 65 -15 90 56 14 40 114 150 136 150 18 0 9 21 -13 30 -13 6
-30 15 -39 22 -14 9 -24 6 -57 -20 l-40 -32 -13 37 c-6 21 -17 41 -23 45 -19
13 -53 9 -67 -8z"/>
<path d="M7504 4798 c-28 -30 -76 -135 -72 -155 2 -9 11 -21 21 -27 22 -14 47
0 67 40 25 47 31 55 41 49 5 -4 3 -18 -6 -35 -27 -53 -14 -100 27 -100 10 0
21 7 24 15 10 26 21 16 16 -14 -5 -35 26 -58 56 -42 22 12 85 144 80 168 -2
11 -39 37 -93 65 -119 61 -135 65 -161 36z m141 -168 c-4 -12 -9 -19 -12 -17
-3 3 -2 15 2 27 4 12 9 19 12 17 3 -3 2 -15 -2 -27z"/>
<path d="M11163 4680 c-74 -38 -99 -147 -47 -209 31 -37 77 -42 94 -11 12 22
5 60 -10 60 -14 0 -31 37 -24 54 9 23 38 28 84 16 29 -8 40 -16 40 -30 0 -11
-6 -20 -13 -20 -16 0 -47 -62 -47 -95 0 -35 16 -39 67 -20 36 14 49 26 64 59
49 107 -4 197 -123 212 -32 4 -54 0 -85 -16z"/>
<path d="M3075 3990 l-29 -31 26 -22 c31 -26 86 -123 75 -133 -4 -4 -16 1 -26
10 -27 25 -64 17 -75 -16 -8 -24 -6 -32 19 -58 41 -43 100 -42 150 1 47 42 47
81 -1 168 -64 118 -90 132 -139 81z"/>
<path d="M3799 3744 c-8 -10 -32 -51 -54 -93 l-41 -76 -57 -3 c-67 -4 -83 -21
-69 -74 8 -33 8 -33 65 -30 60 4 69 -4 38 -32 -23 -21 -45 -96 -39 -130 4 -22
0 -27 -28 -36 -43 -15 -94 -73 -94 -108 0 -16 18 -65 40 -110 21 -45 35 -84
30 -87 -17 -11 -11 -47 9 -52 11 -3 33 -22 50 -44 l32 -39 -22 -51 c-26 -60
-19 -82 28 -87 25 -3 32 3 48 32 17 31 20 33 32 18 7 -9 13 -24 13 -33 0 -9
11 -21 24 -27 13 -6 51 -32 83 -58 l60 -48 -18 -30 c-22 -37 -24 -110 -4 -146
13 -24 11 -27 -73 -108 -73 -69 -85 -85 -76 -100 6 -9 21 -18 34 -20 45 -7 68
7 99 63 21 38 37 55 51 55 25 0 26 -25 3 -95 -15 -44 -23 -55 -51 -65 -40 -14
-55 -37 -87 -130 -29 -86 -31 -105 -9 -122 8 -7 25 -23 36 -35 11 -12 31 -24
44 -27 13 -4 24 -11 24 -17 0 -7 -8 -9 -22 -4 -65 21 -117 -2 -93 -41 18 -28
125 -66 165 -59 48 9 62 22 49 46 -6 13 -6 19 1 19 5 0 10 10 10 22 0 18 26
103 36 117 2 1 13 -4 25 -12 25 -18 31 -17 134 41 100 56 115 69 115 98 0 23
-51 74 -74 74 -17 0 -36 -21 -36 -39 0 -9 -28 -31 -63 -50 -34 -18 -71 -42
-83 -53 -19 -17 -22 -17 -34 -3 -10 12 -10 19 -2 27 17 17 15 80 -4 106 -28
41 -5 37 39 -6 24 -23 51 -42 62 -42 11 0 41 21 67 47 45 44 48 46 66 30 28
-26 55 -21 92 18 19 19 38 35 43 35 5 0 7 -18 4 -40 -7 -53 8 -65 70 -54 51
10 68 35 40 57 -12 10 -13 29 -4 116 l9 105 -25 21 c-18 13 -23 25 -18 33 6
10 17 0 38 -35 16 -26 32 -56 36 -65 7 -20 32 -24 42 -7 4 5 18 14 31 19 27
11 31 32 10 50 -17 14 -60 83 -49 78 5 -2 32 -16 62 -31 60 -32 95 -30 107 6
11 31 7 45 -28 100 -30 48 -31 49 -15 83 9 19 20 34 25 34 4 0 18 -25 32 -56
32 -75 56 -104 86 -104 22 0 31 12 70 94 49 103 53 130 25 146 -19 10 -19 12
9 92 26 77 32 85 82 119 71 49 91 73 83 98 -11 37 -42 45 -81 22 -44 -26 -51
-26 -64 -1 -9 17 -6 25 25 54 19 18 35 38 35 45 0 15 -37 51 -53 51 -7 0 -46
-22 -86 -50 -84 -58 -100 -64 -45 -16 36 31 38 35 26 60 -16 36 -39 42 -78 21
-38 -20 -28 -25 -121 57 -48 43 -63 46 -86 20 -25 -27 -21 -42 21 -85 l37 -39
-35 8 c-19 5 -56 9 -82 9 -54 0 -60 8 -20 27 37 18 64 72 51 105 -6 17 -6 30
2 39 9 11 6 25 -11 61 -30 67 -42 73 -133 73 -97 0 -117 -9 -117 -55 0 -21 -5
-35 -12 -35 -9 0 -13 17 -13 52 0 46 -3 54 -25 65 -14 7 -26 21 -26 32 -2 30
-21 48 -57 54 -18 3 -69 11 -114 18 -75 11 -83 15 -83 34 0 27 -20 45 -87 79
-61 30 -85 32 -104 10z m118 -110 c24 -10 43 -23 43 -27 0 -5 -3 -7 -8 -5 -68
30 -92 43 -92 51 0 5 3 7 8 5 4 -2 26 -13 49 -24z m-63 -79 c26 -20 55 -19 78
2 21 18 21 14 7 -46 -12 -54 -5 -77 29 -93 24 -12 27 -18 24 -53 -3 -28 -13
-49 -34 -72 -35 -36 -47 -102 -30 -152 6 -17 7 -31 3 -31 -14 0 -41 36 -34 44
5 4 8 26 9 49 1 23 7 56 14 72 18 43 17 117 -3 145 -9 14 -17 37 -17 52 0 22
-9 32 -45 54 -44 25 -58 44 -32 44 6 0 21 -7 31 -15z m230 -105 c38 0 32 -15
-11 -28 -20 -6 -38 -10 -39 -9 0 1 -4 15 -8 30 -6 26 -5 27 13 18 11 -6 31
-11 45 -11z m381 -50 c-3 -5 -12 -10 -20 -10 -8 0 -17 5 -20 10 -4 6 5 10 20
10 15 0 24 -4 20 -10z m-630 -68 c-3 -17 -15 -38 -26 -48 -27 -24 -69 -5 -69
31 0 21 5 25 28 25 16 0 37 6 48 14 24 18 27 14 19 -22z m285 -2 c0 -5 -7 -10
-16 -10 -8 0 -12 5 -9 10 3 6 10 10 16 10 5 0 9 -4 9 -10z m-68 -75 c-3 -35 1
-61 9 -71 18 -22 53 -14 57 14 4 26 22 30 22 4 0 -60 -92 -88 -126 -37 -14 22
-14 27 0 56 9 18 16 45 16 61 0 16 5 28 13 28 8 0 11 -16 9 -55z m167 -2 c0
-25 -1 -26 -9 -8 -12 27 -12 35 0 35 6 0 10 -12 9 -27z m124 -43 c11 -13 10
-13 -5 -1 -10 7 -17 25 -17 40 l2 26 4 -25 c3 -14 10 -32 16 -40z m-96 -72
c-1 -6 14 -15 33 -19 19 -4 36 -12 38 -19 2 -6 15 -24 29 -41 27 -31 27 -36 3
-39 -31 -5 -40 1 -40 24 0 34 -22 48 -64 40 -20 -3 -40 -12 -44 -18 -4 -7 -33
-18 -64 -25 -68 -15 -118 -62 -118 -112 0 -27 -2 -29 -26 -23 -18 5 -31 0 -49
-16 l-23 -22 -42 28 -42 28 78 22 c110 30 114 33 121 65 5 25 10 29 37 29 40
0 94 28 119 61 10 14 21 45 24 68 l6 43 13 -32 c8 -17 13 -36 11 -42z m-575
35 c9 -10 30 -46 46 -79 17 -34 38 -64 47 -68 21 -8 54 10 63 35 7 19 8 19 31
-2 l24 -22 -54 -18 c-30 -10 -61 -18 -70 -18 -8 -1 -25 -10 -37 -21 -16 -16
-22 -17 -22 -6 0 8 -19 53 -41 100 -34 71 -39 89 -29 101 16 19 23 19 42 -2z
m158 -40 c0 -22 -16 -15 -28 12 -17 36 -15 41 8 20 11 -10 20 -24 20 -32z
m655 17 c-4 -6 1 -22 9 -36 16 -23 16 -25 -6 -33 -18 -7 -28 -4 -45 11 l-22
21 32 22 c37 27 40 28 32 15z m275 -143 c0 -11 -1 -18 -3 -16 -1 2 -10 14 -21
26 -17 21 -17 21 3 16 13 -3 21 -13 21 -26z m-147 -15 c15 -17 15 -19 -5 -36
-20 -17 -21 -17 -47 8 -22 23 -24 28 -11 36 23 15 45 12 63 -8z m284 -47 c-31
-30 -34 -51 -10 -77 12 -13 13 -22 6 -29 -8 -8 -18 2 -34 31 -13 23 -23 45
-22 47 3 9 68 52 78 53 5 0 -3 -11 -18 -25z m-679 -7 c25 -25 14 -58 -24 -74
-19 -8 -44 -12 -55 -9 -23 8 -41 38 -33 58 12 31 89 48 112 25z m267 -27 c23
-21 46 -40 52 -42 7 -2 15 -37 19 -76 6 -64 4 -73 -11 -79 -26 -10 -42 18 -50
89 -8 73 -27 107 -58 107 -33 0 -47 -19 -47 -63 l0 -38 -42 3 c-32 2 -42 7
-39 18 2 8 6 32 8 53 3 20 11 36 17 36 6 -1 22 2 36 8 71 29 66 29 115 -16z
m211 -8 c-8 -21 -20 -51 -27 -68 l-13 -30 -6 45 c-5 39 -2 48 19 68 35 32 42
27 27 -15z m-850 -82 c16 -12 21 -22 14 -26 -6 -4 -12 -5 -13 -4 -1 2 -11 14
-21 27 -23 27 -13 29 20 3z m934 -6 c0 -8 4 -15 8 -15 5 0 17 -18 27 -41 10
-22 32 -51 47 -63 27 -20 28 -25 17 -52 l-11 -29 -18 40 c-10 22 -27 62 -39
88 -13 29 -29 51 -41 54 -21 5 -25 15 -13 26 11 12 23 8 23 -8z m-760 -30 c7
-9 10 -18 7 -22 -8 -7 -37 15 -37 28 0 14 16 11 30 -6z m658 -80 c-12 -25 -26
-45 -30 -45 -5 0 -4 9 2 19 5 11 10 40 10 65 0 46 0 46 20 26 20 -20 20 -20
-2 -65z m-507 -119 c17 -15 37 -26 46 -26 10 0 13 -6 9 -16 -3 -9 -6 -20 -6
-25 0 -5 -4 -9 -10 -9 -5 0 -10 6 -10 14 0 25 -63 76 -102 82 -44 8 -50 30
-12 44 15 6 24 17 23 27 -1 10 4 31 12 48 14 29 14 28 17 -42 3 -66 5 -74 33
-97z m-207 115 c10 -10 13 -22 8 -25 -12 -7 -54 23 -47 35 9 14 20 11 39 -10z
m284 -6 c-2 -14 -7 -26 -13 -26 -5 0 -11 12 -13 26 -2 18 1 25 13 25 12 0 15
-7 13 -25z m102 -4 c0 -11 -4 -23 -10 -26 -6 -4 -10 5 -10 19 0 14 5 26 10 26
6 0 10 -9 10 -19z m169 -65 c46 0 48 -1 74 -48 15 -26 25 -48 22 -48 -3 0 -31
14 -64 31 -74 39 -93 32 -116 -46 -8 -30 -17 -55 -20 -55 -7 0 -55 85 -55 97
0 6 9 13 20 16 13 3 27 22 37 46 15 40 17 41 35 24 12 -11 36 -17 67 -17z
m-406 -138 c9 -13 6 -21 -10 -35 -12 -10 -26 -33 -30 -52 l-9 -35 -22 37 c-12
20 -25 37 -31 37 -15 0 -22 30 -10 51 8 16 19 19 56 17 30 -2 50 -9 56 -20z
m201 -45 c3 -10 9 -24 12 -30 3 -8 -2 -13 -13 -13 -40 0 -56 -47 -31 -93 7
-14 -7 -5 -36 21 -27 25 -53 41 -62 38 -11 -4 -12 -2 -2 14 9 14 19 17 40 13
23 -5 30 0 49 31 23 40 34 44 43 19z m-161 -112 c-3 -12 8 -33 32 -59 23 -27
32 -43 24 -47 -6 -4 -23 6 -39 24 -33 35 -46 38 -78 15 -29 -20 -28 -27 14
-69 48 -49 38 -55 -12 -8 l-40 38 11 56 c6 32 15 54 21 52 6 -2 22 1 35 6 35
14 38 13 32 -8z m266 -37 c-13 -16 -29 -10 -29 11 0 8 7 11 20 8 16 -4 18 -8
9 -19z m-454 -271 c-3 -9 2 -27 11 -40 11 -18 13 -28 5 -36 -6 -6 -11 -18 -11
-27 0 -27 -20 -40 -44 -28 -12 6 -22 12 -24 13 -2 2 19 70 39 123 5 13 14 20
20 17 6 -4 8 -14 4 -22z"/>
<path d="M9975 3448 c-34 -5 -68 -17 -79 -28 -17 -17 -18 -24 -7 -102 18 -121
28 -156 51 -163 28 -9 168 15 181 31 6 7 9 23 7 36 -3 21 -8 23 -63 24 -63 1
-94 24 -32 24 42 0 70 28 65 67 -2 23 -7 28 -28 26 l-25 -3 28 21 c31 23 34
41 11 63 -17 18 -22 18 -109 4z m50 -88 c-3 -5 -13 -10 -21 -10 -8 0 -14 5
-14 10 0 6 9 10 21 10 11 0 17 -4 14 -10z"/>
<path d="M10447 3447 c-126 -10 -147 -18 -147 -55 0 -39 17 -52 66 -52 29 0
44 -5 48 -16 12 -32 6 -41 -36 -47 -60 -8 -86 -48 -52 -81 18 -18 44 -19 167
-6 96 10 117 20 117 56 0 24 -42 60 -58 50 -13 -8 -42 27 -34 40 4 6 21 17 37
25 25 12 30 20 30 48 0 45 -16 49 -138 38z"/>
<path d="M11375 3164 c-22 -9 -53 -16 -70 -16 -48 2 -73 -7 -79 -26 -7 -20 20
-82 34 -82 5 0 14 -19 21 -42 25 -96 96 -143 175 -118 87 28 120 76 111 156
-11 103 -103 164 -192 128z m61 -82 c31 -20 44 -88 22 -110 -29 -29 -73 -1
-84 55 -9 43 29 77 62 55z"/>
<path d="M11046 2821 c-9 -10 -22 -35 -27 -56 -9 -33 -13 -36 -42 -34 -48 4
-54 -4 -49 -66 2 -30 1 -55 -4 -55 -5 0 -22 26 -39 58 -26 49 -35 57 -61 60
-47 5 -57 -16 -65 -136 -9 -119 -6 -137 22 -153 36 -19 67 12 71 68 l3 48 24
-45 c13 -25 30 -53 38 -62 13 -15 12 -18 -9 -29 -38 -20 -47 -41 -48 -101 0
-34 -4 -58 -10 -58 -6 0 -10 18 -9 44 2 24 -3 57 -10 74 -29 70 -78 40 -77
-47 1 -55 -11 -64 -55 -41 -16 9 -17 14 -6 33 6 12 18 26 25 30 14 9 16 46 3
66 -6 9 -6 22 -1 32 7 12 2 27 -18 55 -16 22 -31 47 -35 56 -11 31 -43 40 -68
20 -19 -16 -21 -23 -12 -49 l11 -30 -86 -35 c-85 -33 -87 -35 -87 -67 0 -55
22 -61 113 -28 89 31 102 33 102 13 0 -10 -20 -19 -57 -27 -42 -10 -66 -22
-85 -43 -33 -36 -34 -42 -8 -56 11 -6 17 -16 14 -25 -4 -9 -2 -21 4 -28 5 -6
16 -38 23 -71 9 -43 18 -61 35 -68 12 -6 24 -23 28 -38 6 -32 36 -46 63 -31
10 5 36 41 58 80 38 67 56 83 70 61 10 -17 42 -11 82 15 69 45 83 69 83 146 0
16 5 29 11 29 8 0 9 -17 5 -53 -8 -64 8 -93 46 -84 64 16 63 156 -2 210 -24
20 -27 27 -16 36 7 6 17 43 20 82 7 62 9 69 23 57 13 -11 18 -9 31 10 16 25
37 30 28 7 -4 -10 1 -15 14 -15 11 0 20 5 20 11 0 7 23 8 68 3 57 -5 71 -3 85
11 9 9 17 23 17 31 0 22 -38 54 -65 54 -23 0 -25 4 -25 44 0 33 -7 52 -26 75
-22 27 -33 31 -73 31 -34 0 -53 -5 -65 -19z m79 -111 c-9 -15 -25 -12 -32 6
-8 21 19 38 30 18 4 -8 5 -19 2 -24z m-505 -440 c0 -5 -4 -10 -10 -10 -5 0
-10 5 -10 10 0 6 5 10 10 10 6 0 10 -4 10 -10z m27 -110 c-12 -17 -16 -18 -20
-6 -4 9 1 20 11 25 23 13 27 6 9 -19z"/>
<path d="M8038 2750 c-88 -16 -111 -59 -95 -183 8 -69 7 -80 -9 -98 -14 -15
-16 -24 -8 -37 15 -23 48 -27 64 -7 7 8 20 15 30 15 30 0 38 21 29 80 -13 92
-11 140 7 147 24 9 34 -9 45 -83 14 -97 23 -114 58 -114 49 0 56 19 42 122 -6
50 -16 99 -22 109 -21 41 -79 61 -141 49z"/>
<path d="M11380 2718 c-55 -38 -75 -73 -74 -129 0 -44 -1 -47 -15 -35 -41 37
-111 26 -111 -17 0 -29 9 -40 43 -55 55 -24 44 -63 -24 -83 -30 -9 -42 -9 -53
0 -13 11 -13 16 -1 34 22 35 2 127 -28 127 -14 0 -49 -36 -65 -67 -18 -32 -14
-72 10 -123 13 -27 23 -72 25 -114 7 -120 45 -161 145 -160 47 1 58 -2 58 -15
0 -24 75 -106 114 -125 49 -23 83 -20 113 10 21 21 25 32 20 64 -3 21 -17 54
-31 73 -31 41 -35 62 -7 48 10 -6 24 -24 29 -40 12 -35 49 -58 65 -42 25 25
23 7 -4 -63 -30 -78 -30 -100 3 -117 44 -23 66 8 124 171 28 79 19 102 -41
110 -37 5 -36 6 51 34 101 32 124 48 124 85 0 38 -7 45 -87 85 -52 25 -73 42
-73 55 0 10 -7 24 -15 31 -8 7 -15 9 -15 4 0 -5 -9 6 -20 24 -11 17 -26 32
-34 32 -11 0 -13 8 -9 35 7 40 -17 85 -46 85 -27 0 -54 -35 -46 -60 8 -27 -10
-50 -41 -50 -26 0 -64 47 -64 79 0 17 6 21 34 21 37 0 99 37 104 62 2 12 -9
22 -34 33 -51 21 -85 19 -124 -7z m41 -275 c37 -7 36 -14 -1 -41 -38 -29 -38
-53 3 -109 25 -36 29 -47 18 -51 -8 -3 -25 -15 -38 -28 l-23 -23 -1 47 c-2 73
-12 106 -35 116 -20 9 -21 12 -7 43 10 25 11 43 4 69 l-10 35 31 -26 c17 -14
44 -29 59 -32z m163 -88 c29 -29 33 -38 27 -62 -7 -27 -41 -46 -41 -24 0 6 -5
11 -12 11 -16 0 -58 41 -58 56 0 11 37 54 47 54 1 0 18 -16 37 -35z m141 -55
c4 -6 -5 -10 -20 -10 -15 0 -24 4 -20 10 3 6 12 10 20 10 8 0 17 -4 20 -10z
m-442 -65 c-7 -21 -13 -19 -13 6 0 11 4 18 10 14 5 -3 7 -12 3 -20z m-29 -7
c15 -21 15 -23 -5 -30 -37 -14 -78 7 -79 40 0 22 67 15 84 -10z m165 -157 c23
-28 28 -41 18 -41 -8 0 -25 16 -36 36 -12 20 -30 38 -41 41 -24 6 -24 8 -2 45
l17 29 6 -34 c3 -19 20 -53 38 -76z"/>
<path d="M12560 1914 c-8 -1 -50 -6 -93 -9 -105 -9 -111 -16 -103 -119 4 -45
14 -91 22 -104 21 -32 62 -47 97 -33 21 7 34 7 49 -2 15 -10 22 -9 31 3 7 8
25 20 42 25 44 15 57 50 49 136 -9 94 -30 117 -94 103z m10 -120 c0 -14 -4
-23 -10 -19 -5 3 -10 15 -10 26 0 10 5 19 10 19 6 0 10 -12 10 -26z m-99 -11
c6 -17 6 -30 0 -36 -12 -12 -35 38 -25 54 9 14 14 11 25 -18z"/>
<path d="M3776 1682 c-14 -23 -76 -204 -76 -222 0 -24 29 -43 98 -66 45 -14
60 -15 93 -5 51 15 90 72 97 140 6 65 -15 103 -74 131 -52 26 -128 38 -138 22z
m108 -124 c15 -24 -17 -88 -43 -88 -11 0 -22 4 -25 9 -8 12 14 72 24 66 5 -3
16 -2 25 1 15 6 14 9 -6 21 -19 11 -20 13 -5 11 10 -2 24 -11 30 -20z"/>
<path d="M10845 976 c-14 -10 -19 -25 -18 -54 2 -35 0 -39 -18 -35 -12 3 -23
12 -26 19 -6 16 -53 19 -53 4 0 -16 -40 -33 -53 -22 -7 6 -31 15 -53 22 -52
16 -103 1 -137 -39 l-24 -28 -19 28 c-10 16 -23 29 -27 29 -5 0 -20 14 -34 30
-44 53 -97 29 -75 -34 16 -44 16 -43 -18 -61 -37 -19 -40 -19 -40 5 0 24 -27
38 -140 75 -47 15 -89 34 -93 41 -12 22 -37 16 -46 -10 -9 -23 -37 -42 -56
-36 -89 25 -143 16 -177 -31 l-22 -29 -16 41 c-18 50 -42 69 -68 53 -9 -6 -31
-9 -47 -7 -22 3 -36 -1 -49 -16 -24 -27 -48 -27 -64 0 -15 24 -59 23 -75 -2
-8 -12 -5 -24 12 -48 31 -43 18 -53 -17 -13 -21 25 -36 32 -72 34 -38 3 -45 0
-48 -17 -5 -25 -82 -135 -94 -135 -5 0 -6 15 -3 33 12 63 -51 92 -83 38 -14
-25 -21 -28 -47 -24 -27 4 -36 0 -60 -28 -25 -30 -34 -34 -76 -34 -39 0 -49 3
-49 17 0 26 -20 33 -92 29 -41 -2 -80 2 -98 11 -52 23 -38 32 65 44 33 3 68
11 78 16 22 11 23 61 1 79 -23 19 -188 -3 -226 -31 -34 -25 -38 -25 -38 1 0
62 -37 72 -176 43 -112 -23 -117 -27 -112 -79 l5 -44 -48 27 c-27 15 -51 35
-55 45 -7 22 -29 22 -46 -1 -7 -10 -21 -21 -30 -25 -10 -3 -20 -18 -24 -32 -8
-34 12 -58 43 -50 21 5 93 -17 93 -29 0 -3 -22 -2 -50 1 -31 4 -55 1 -63 -6
-11 -9 -18 -3 -32 30 -27 58 -58 79 -117 79 -50 0 -113 -25 -137 -54 -8 -9
-20 -16 -28 -16 -11 0 -13 -12 -9 -62 5 -58 4 -61 -10 -43 -8 11 -18 31 -21
45 -19 80 -66 106 -99 55 -14 -21 -15 -31 -5 -51 13 -30 9 -40 -20 -47 -19 -5
-21 -3 -14 26 15 61 11 99 -10 111 -11 6 -23 16 -27 21 -5 7 -13 6 -25 -1 -13
-8 -18 -24 -18 -59 0 -67 -18 -77 -87 -45 -50 22 -79 26 -158 18 -33 -3 -35
-5 -36 -43 0 -22 -8 -53 -17 -70 l-17 -30 2 57 c1 66 -12 88 -54 88 -24 0 -34
-9 -60 -50 -17 -28 -32 -49 -34 -48 -1 2 2 25 7 51 14 76 2 89 -74 81 -34 -4
-69 -13 -78 -20 -23 -20 -39 -17 -61 11 -22 29 -50 32 -69 9 -11 -14 -10 -21
4 -46 33 -57 15 -67 -21 -12 -18 28 -28 35 -50 32 -38 -4 -40 -38 -7 -95 27
-45 26 -53 -8 -66 -5 -1 -13 -25 -18 -51 -5 -27 -11 -51 -13 -53 -2 -2 -15 1
-30 6 -20 8 -26 17 -26 41 0 42 -39 80 -82 80 -24 0 -47 -11 -82 -40 -26 -22
-50 -40 -51 -40 -2 0 -1 9 2 20 7 27 -13 49 -64 71 -24 10 -43 20 -43 23 0 2
20 11 45 19 38 13 45 14 45 2 0 -33 42 -45 152 -45 96 0 110 2 129 21 11 11
18 27 15 36 -3 8 -9 26 -12 39 -9 37 -39 49 -63 25 -16 -16 -37 -20 -119 -23
-107 -3 -111 -2 -134 55 -10 23 -34 21 -52 -5 -11 -15 -41 -28 -103 -44 -51
-14 -89 -19 -91 -14 -6 16 -42 12 -48 -5 -4 -8 -11 -15 -16 -15 -6 0 -8 7 -5
14 5 12 -3 15 -36 14 -23 -1 -63 2 -89 7 -55 9 -78 -3 -78 -41 0 -25 34 -54
62 -54 31 0 20 -28 -20 -50 -45 -25 -72 -65 -72 -107 -1 -27 -1 -27 -15 -9 -9
12 -15 42 -15 78 0 47 -3 59 -20 68 -44 24 -80 -13 -80 -83 0 -22 -13 -47 -40
-82 -22 -27 -40 -56 -40 -62 0 -7 -7 -13 -15 -13 -33 0 -12 -26 31 -39 46 -14
46 -14 70 15 13 16 23 32 24 37 1 18 18 4 33 -27 19 -41 49 -53 80 -33 19 12
25 12 52 -5 24 -15 46 -18 105 -16 41 2 85 -1 97 -5 16 -6 27 -3 41 11 20 20
20 20 42 -10 65 -88 160 -41 160 80 0 28 4 52 9 52 16 0 22 -36 11 -65 -8 -22
-7 -33 5 -51 30 -46 85 -17 85 44 0 18 2 32 3 32 2 0 29 -25 59 -55 30 -30 60
-55 66 -55 17 0 52 37 52 54 0 8 -12 29 -26 46 -15 17 -25 32 -23 34 2 2 27
-5 55 -16 42 -16 53 -25 57 -48 7 -34 21 -39 119 -47 59 -5 82 -2 100 9 20 13
36 13 136 0 132 -18 141 -15 149 62 4 32 12 50 28 60 21 14 22 13 34 -36 17
-63 75 -128 116 -128 35 0 95 37 95 58 -1 27 -38 102 -54 108 -8 3 -24 0 -36
-6 -17 -9 -20 -18 -16 -38 6 -26 6 -26 -9 -8 -23 31 -18 55 18 76 62 38 97 19
97 -52 0 -19 7 -44 16 -56 17 -25 54 -30 54 -8 0 28 18 26 102 -10 80 -35 169
-51 211 -38 10 3 22 17 27 30 11 28 25 30 69 8 41 -21 95 -4 120 37 l18 29 44
-61 c24 -34 53 -65 64 -69 22 -8 63 9 84 34 19 22 30 20 24 -4 -6 -23 22 -60
45 -60 9 0 26 10 39 22 22 20 24 20 42 4 17 -16 20 -16 35 -1 9 9 16 21 16 26
0 5 9 9 20 9 12 0 32 11 45 24 l24 24 37 -29 c20 -16 41 -29 46 -29 6 0 19
-11 30 -25 11 -14 25 -25 32 -25 7 0 39 19 71 41 38 26 63 38 71 33 66 -50 96
-54 109 -13 10 31 -2 53 -45 79 -22 14 -40 28 -40 32 0 12 38 9 46 -3 4 -7 23
-9 49 -6 45 7 60 1 47 -17 -4 -6 -18 -37 -31 -70 -29 -70 -22 -109 20 -114 25
-3 182 50 206 70 21 17 15 48 -12 58 -19 7 -36 5 -66 -6 -22 -9 -41 -15 -43
-13 -2 2 4 24 15 49 12 30 18 38 18 24 1 -26 24 -37 40 -21 9 9 15 8 22 -5 6
-10 17 -18 25 -18 8 0 38 -12 66 -26 59 -30 95 -26 104 11 l6 26 64 -36 c36
-19 71 -35 79 -35 8 0 32 -9 52 -20 65 -35 125 -20 181 45 29 33 35 35 45 21
7 -9 41 -22 77 -29 64 -13 65 -13 71 -49 7 -46 25 -68 54 -68 37 0 48 23 40
85 -7 61 0 67 35 30 13 -14 31 -25 40 -25 20 0 40 19 40 39 0 8 8 23 17 34 17
18 17 20 -4 37 l-22 17 44 43 45 44 -7 -81 c-5 -75 -4 -82 15 -92 28 -15 51
-4 58 28 17 74 21 86 29 83 5 -1 8 -22 6 -45 -3 -48 10 -65 50 -69 19 -2 25 2
27 22 4 24 4 23 17 -8 25 -58 85 -36 85 32 0 18 5 26 18 26 9 0 37 11 61 25
23 14 45 25 48 25 14 0 -25 -34 -55 -48 -19 -9 -41 -26 -48 -37 -12 -18 -11
-24 3 -44 14 -20 21 -23 60 -17 24 3 64 17 89 32 l44 26 0 -26 c0 -20 7 -29
28 -37 15 -6 35 -15 44 -20 46 -23 77 0 79 58 1 23 4 19 13 -17 14 -58 23 -70
47 -70 14 0 26 13 39 43 l19 42 0 -41 c1 -43 15 -64 43 -64 26 0 45 37 58 118
6 39 14 72 18 72 3 0 13 -7 23 -16 16 -15 17 -18 3 -39 -12 -18 -13 -28 -4
-44 14 -28 27 -26 83 9 36 22 47 36 47 55 0 16 6 25 15 25 19 0 19 -2 -6 -44
-24 -41 -19 -68 16 -84 21 -10 27 -9 37 8 17 26 32 26 18 0 -15 -28 4 -60 35
-60 13 0 26 4 29 9 3 4 16 6 30 4 18 -4 26 0 31 15 4 14 26 28 63 42 82 31
112 36 112 18 0 -8 16 -33 35 -56 26 -29 46 -43 73 -48 20 -4 45 -13 54 -21
13 -11 21 -12 37 -3 20 10 23 15 25 42 1 12 38 54 67 76 9 7 23 10 32 7 12 -5
13 -12 4 -35 -8 -22 -8 -32 2 -44 17 -21 32 -20 111 4 52 16 67 17 80 7 8 -7
27 -18 42 -25 34 -14 56 7 41 40 -6 13 -5 33 1 55 l11 35 50 -7 c123 -19 155
-8 142 47 -9 34 -16 36 -150 44 -107 6 -115 5 -128 -13 -8 -12 -29 -22 -51
-25 -21 -2 -38 -3 -38 -2 0 2 24 16 54 33 30 17 57 38 60 47 3 8 -1 34 -9 57
-13 39 -13 43 5 61 18 19 21 19 53 4 45 -22 62 -10 53 36 -15 80 12 93 118 56
53 -19 60 -20 82 -5 27 18 31 46 9 68 -18 19 -154 50 -225 52 -30 1 -86 -2
-124 -6 -63 -8 -72 -7 -89 12 -23 24 -41 20 -45 -10 -3 -15 -8 -21 -19 -17 -8
3 -52 6 -98 6 l-84 0 -3 31 c-7 68 -70 63 -76 -5 -4 -42 -17 -47 -26 -11 -4
16 -20 32 -41 42 -28 14 -38 14 -65 3 -17 -7 -40 -24 -50 -38 -30 -38 -33 -21
-4 20 21 29 24 40 15 56 -13 25 -38 34 -60 23 -10 -6 -32 -5 -59 2 -61 16 -91
2 -129 -63 -18 -30 -33 -46 -33 -37 0 32 -30 76 -62 93 -26 13 -48 15 -119 10
-73 -5 -88 -4 -93 9 -8 21 -43 19 -55 -3 -7 -14 -6 -25 5 -41 20 -28 11 -38
-20 -23 -19 8 -24 20 -28 63 -4 35 -11 57 -24 66 -22 16 -26 16 -49 -1z
m-2383 -158 c-9 -9 -12 -7 -12 12 0 19 3 21 12 12 9 -9 9 -15 0 -24z m1158 22
c0 -5 -7 -10 -15 -10 -8 0 -15 5 -15 10 0 6 7 10 15 10 8 0 15 -4 15 -10z
m-1185 -24 c19 -20 20 -26 8 -30 -32 -13 -72 -6 -83 13 -15 30 -15 31 44 40 5
0 19 -10 31 -23z m1630 14 c-3 -5 -15 -10 -26 -10 -11 0 -17 5 -14 10 3 6 15
10 26 10 11 0 17 -4 14 -10z m-190 -14 c26 -11 35 -21 35 -38 0 -27 -17 -48
-38 -48 -12 0 -12 3 -2 15 15 18 5 35 -21 35 -10 0 -19 5 -19 10 0 6 -10 10
-22 10 -22 1 -23 1 -4 15 24 18 28 18 71 1z m753 2 c28 -28 -5 -118 -43 -118
-27 0 -47 32 -41 63 11 56 55 84 84 55z m795 -53 c-5 -52 -4 -56 27 -85 l32
-30 -27 -32 c-23 -28 -27 -39 -23 -80 4 -36 2 -48 -8 -48 -8 0 -14 11 -14 26
0 17 -17 43 -52 80 -45 47 -48 54 -28 52 18 -2 25 3 27 17 3 19 64 155 69 155
1 0 0 -25 -3 -55z m-628 29 l38 -15 -37 -38 c-20 -20 -36 -46 -36 -58 0 -20
70 -93 89 -93 5 0 21 15 35 33 l26 32 0 -29 c0 -33 -34 -76 -61 -76 -33 0 -48
12 -59 46 -12 35 -61 71 -80 59 -14 -9 -13 -3 10 46 11 24 20 59 20 77 0 37 4
38 55 16z m403 -8 c6 -28 -6 -33 -93 -41 -72 -6 -78 -6 -66 9 7 9 11 22 8 30
-7 17 28 24 103 22 35 -1 46 -5 48 -20z m-1840 -18 c7 -7 12 -20 12 -30 0 -29
37 -59 63 -53 57 15 60 -59 4 -90 -45 -24 -59 -17 -61 31 -2 47 -41 108 -63
100 -11 -5 -10 1 4 24 19 33 24 35 41 18z m1037 -8 c11 -18 -6 -78 -23 -82
-29 -8 -42 3 -42 32 0 38 49 76 65 50z m-2417 -39 c4 -27 -21 -57 -54 -65 -67
-17 -88 55 -25 86 40 20 75 11 79 -21z m1614 17 c43 -10 47 -13 56 -51 10 -38
9 -43 -19 -74 -16 -19 -29 -38 -29 -43 0 -5 -17 -18 -37 -29 -21 -10 -47 -28
-57 -40 -11 -12 -26 -21 -35 -21 -9 0 -28 -6 -42 -14 -22 -11 -30 -11 -50 0
-13 7 -36 13 -50 14 -18 0 -28 7 -32 20 -8 33 -53 26 -72 -10 -9 -16 -20 -30
-25 -30 -13 0 -12 10 5 40 20 35 18 68 -5 80 -11 6 -20 8 -20 4 0 -4 -2 -5 -5
-2 -12 12 19 57 47 69 16 6 38 23 48 37 14 17 20 20 20 9 0 -9 -4 -19 -10 -22
-18 -11 -11 -81 13 -115 53 -78 133 -96 205 -46 85 59 96 148 28 225 -20 23
-20 24 -1 16 11 -4 41 -12 67 -17z m581 6 c-4 -11 -13 -14 -32 -9 -46 11 -48
25 -3 25 34 0 40 -3 35 -16z m828 -33 c-5 -9 -6 -23 -3 -31 3 -8 -11 3 -31 24
-21 21 -37 40 -37 41 0 1 18 -3 39 -8 31 -9 38 -14 32 -26z m598 -21 c-42 -36
-44 -39 -32 -69 10 -27 9 -32 -7 -41 -15 -8 -18 -4 -24 33 -5 30 -3 43 6 46 7
2 31 24 53 48 22 24 41 39 44 32 2 -6 -16 -28 -40 -49z m-1561 3 c24 -6 25 -7
7 -14 -11 -4 -35 -8 -53 -8 -30 -1 -31 0 -20 19 7 11 19 18 26 15 8 -3 26 -8
40 -12z m1702 -44 c0 -31 26 -63 46 -55 8 3 11 0 7 -10 -3 -7 -11 -14 -18 -14
-7 0 -15 -7 -19 -15 -8 -23 -26 -18 -26 8 0 12 -9 39 -20 59 -17 32 -18 42 -8
64 11 24 13 25 25 8 7 -10 13 -30 13 -45z m430 51 c0 -13 -28 -25 -38 -16 -3
4 0 11 8 16 20 13 30 12 30 0z m-3680 -27 c0 -10 -3 -29 -7 -42 -6 -22 -6 -22
-19 9 -8 18 -11 36 -8 41 9 16 34 10 34 -8z m-1527 -73 c-6 -89 2 -110 46
-110 30 0 59 27 85 78 20 40 26 40 26 3 0 -20 -6 -30 -20 -34 -18 -5 -19 -11
-14 -66 6 -55 5 -61 -12 -62 -32 -2 -57 1 -100 12 -34 9 -41 15 -37 30 3 11 0
25 -6 32 -6 8 -8 17 -5 20 15 15 -21 70 -55 85 -32 14 -33 16 -13 20 12 2 22
7 22 12 0 9 69 60 81 60 4 0 5 -36 2 -80z m4912 60 c-22 -11 -41 -20 -42 -20
-2 0 -3 9 -3 20 0 17 7 20 42 20 l42 0 -39 -20z m195 1 c12 -23 13 -61 2 -61
-4 0 -13 9 -20 20 -7 11 -27 29 -45 40 l-32 20 42 0 c32 0 45 -5 53 -19z
m-3694 -46 c11 -27 19 -54 19 -59 0 -5 -19 -17 -42 -27 l-42 -18 11 23 c15 34
-4 61 -67 97 -30 17 -55 32 -55 33 0 1 36 2 79 1 l79 0 18 -50z m389 30 c-36
-30 -45 -31 -45 -6 0 21 13 29 50 30 l25 1 -30 -25z m-630 -29 l30 -16 -58 6
c-39 4 -62 2 -72 -6 -18 -15 -20 -51 -3 -68 23 -23 -18 -24 -56 -1 l-37 22 39
17 c22 10 52 34 68 54 24 30 31 33 44 22 8 -7 29 -21 45 -30z m495 29 c0 -8
-2 -15 -4 -15 -2 0 -6 7 -10 15 -3 8 -1 15 4 15 6 0 10 -7 10 -15z m2465 -1
c50 6 52 5 68 -27 9 -17 26 -48 39 -66 24 -37 21 -36 -49 11 -61 41 -59 41
-140 -44 -12 -13 -33 -48 -46 -78 l-25 -55 -1 51 c-1 41 3 55 24 74 31 29 49
83 41 121 -5 28 -4 29 16 18 13 -7 41 -9 73 -5z m-3679 -4 c16 -5 48 -14 70
-20 37 -9 42 -14 47 -46 9 -52 42 -84 87 -84 56 0 131 29 169 66 19 18 39 31
44 27 8 -5 7 -8 -1 -11 -15 -5 -16 -38 -2 -47 15 -9 2 -25 -16 -18 -11 4 -14
-2 -12 -23 1 -16 -4 -39 -11 -52 -10 -19 -15 -21 -28 -11 -11 10 -19 10 -33 1
-15 -9 -35 -4 -105 24 -48 20 -89 33 -93 30 -3 -3 -15 10 -26 30 -43 76 -119
100 -195 61 -44 -22 -44 -22 -26 8 8 14 22 36 30 50 17 27 50 32 101 15z
m2517 -5 c-7 -20 24 -55 50 -55 19 0 19 -1 2 -20 -15 -16 -15 -22 -5 -35 8 -9
8 -15 2 -15 -6 0 -14 5 -18 11 -4 7 -21 9 -40 6 -30 -5 -34 -3 -34 16 -1 12
-7 36 -14 52 -12 29 -11 30 18 41 43 16 46 16 39 -1z m567 11 c0 -3 -4 -8 -10
-11 -5 -3 -10 -1 -10 4 0 6 5 11 10 11 6 0 10 -2 10 -4z m-2705 -26 c3 -5 -1
-10 -9 -10 -8 0 -18 5 -21 10 -3 6 1 10 9 10 8 0 18 -4 21 -10z m-1605 -8 c0
-4 -18 -26 -41 -47 -41 -40 -41 -40 -35 -97 4 -45 3 -58 -8 -58 -19 0 -27 102
-13 157 11 42 19 48 75 52 12 0 22 -3 22 -7z m-170 -12 c0 -5 -7 -7 -15 -4 -8
4 -15 8 -15 10 0 2 7 4 15 4 8 0 15 -4 15 -10z m1650 -4 c0 -8 -5 -18 -11 -22
-14 -8 -33 11 -25 25 10 16 36 13 36 -3z m2550 6 c0 -14 -11 -21 -26 -15 -8 3
-11 9 -8 14 7 11 34 12 34 1z m-1226 -29 c-14 -57 -24 -74 -41 -71 -28 5 -26
32 4 66 35 39 45 40 37 5z m-412 -30 c35 -80 73 -121 115 -125 43 -4 54 -23
21 -38 -19 -9 -34 -4 -98 32 l-75 43 3 68 c2 37 5 67 8 67 3 0 14 -21 26 -47z
m295 2 c-4 -13 -43 -19 -65 -10 -14 6 -12 10 13 31 28 22 31 23 43 7 7 -10 11
-22 9 -28z m1217 20 c15 -14 24 -30 20 -36 -4 -7 -18 0 -38 18 -17 15 -35 31
-40 35 -6 5 -1 8 11 8 11 0 32 -11 47 -25z m1546 5 c6 -11 8 -25 4 -32 -4 -7
-12 -2 -20 13 -11 21 -10 39 1 39 2 0 9 -9 15 -20z m348 -22 c2 -16 -1 -28 -7
-28 -6 0 -11 7 -11 15 0 8 -8 19 -19 24 -28 15 -55 -9 -49 -42 6 -29 -1 -34
-20 -15 -17 17 -15 26 15 54 38 35 87 30 91 -8z m-2849 0 c-16 -31 -15 -31
-38 -17 -19 13 -19 14 12 25 18 6 33 12 35 13 1 0 -3 -9 -9 -21z m656 6 c9 -9
14 -21 12 -28 -6 -18 -57 -19 -76 -2 -10 9 -21 13 -24 9 -4 -3 -7 -1 -7 6 0
12 34 29 62 30 9 1 24 -6 33 -15z m562 -5 c1 -15 -3 -20 -20 -17 -31 4 -36 38
-5 38 17 0 24 -6 25 -21z m287 -6 c-10 -8 -27 -19 -38 -25 -18 -10 -18 -9 -1
20 13 21 23 28 38 24 19 -5 20 -5 1 -19z m-4344 -3 c0 -5 -9 -10 -19 -10 -36
0 -61 -47 -61 -112 0 -34 -4 -57 -9 -53 -6 3 -9 29 -9 58 1 43 6 58 32 89 29
34 66 50 66 28z m4210 -15 c-7 -8 -17 -15 -23 -15 -5 0 -2 9 8 20 21 23 35 19
15 -5z m-3690 -16 c0 -5 -11 -9 -25 -9 -24 0 -32 10 -19 22 8 8 44 -3 44 -13z
m4495 1 c16 -17 16 -20 3 -15 -9 4 -19 13 -22 21 -7 19 -2 18 19 -6z m-5339
-40 c19 0 18 -45 -2 -64 -21 -22 -40 -20 -58 6 -16 22 -22 79 -10 91 4 3 18
-3 32 -13 13 -11 31 -20 38 -20z m2268 31 l30 -6 -28 -13 c-24 -11 -27 -17
-24 -49 6 -69 -52 -51 -93 29 -10 21 -19 40 -19 43 0 7 97 4 134 -4z m2556
-50 c0 -11 -5 -10 -20 4 -11 10 -20 22 -20 27 0 4 9 3 20 -4 11 -7 20 -19 20
-27z m-2850 -4 c0 -19 -10 -27 -26 -20 -21 8 -17 33 6 33 11 0 20 -6 20 -13z
m1670 -20 c9 -20 24 -33 38 -35 12 -2 22 -6 22 -9 0 -12 -33 -43 -45 -43 -23
0 -65 52 -65 80 0 50 28 55 50 7z m304 1 c23 -32 5 -42 -44 -25 l-43 14 29 16
c39 20 41 20 58 -5z m-3104 -24 c0 -11 -8 -14 -27 -12 -39 4 -42 28 -4 28 21
0 31 -5 31 -16z m3597 -16 c-3 -7 -5 -2 -5 12 0 14 2 19 5 13 2 -7 2 -19 0
-25z m1452 -8 c0 -3 -10 -12 -22 -22 -22 -15 -25 -15 -48 3 l-24 19 23 20 c23
19 25 19 48 2 13 -9 23 -19 23 -22z m-2069 26 c0 -2 -7 -6 -15 -10 -8 -3 -15
-1 -15 4 0 6 7 10 15 10 8 0 15 -2 15 -4z m990 -36 c0 -5 -8 -10 -17 -10 -15
0 -16 2 -3 10 19 12 20 12 20 0z m571 -47 c-8 -15 -10 -15 -11 -2 0 17 10 32
18 25 2 -3 -1 -13 -7 -23z m674 -13 c-28 -12 -37 -12 -30 0 3 6 16 10 28 9 21
0 21 -1 2 -9z"/>
<path d="M3995 845 c-55 -12 -108 -26 -117 -30 -24 -9 -31 -40 -18 -66 11 -20
17 -21 69 -15 l56 7 -48 -48 c-49 -51 -58 -81 -31 -107 20 -21 36 -20 141 5
48 12 101 21 116 21 33 -1 46 22 28 50 -6 10 -10 22 -7 26 3 5 1 14 -4 22 -7
11 -17 11 -60 -3 -77 -25 -79 -22 -22 31 32 30 52 57 52 70 0 21 -32 63 -47
61 -5 0 -53 -11 -108 -24z"/>
<path d="M1774 726 c-3 -8 -4 -21 -2 -29 2 -8 -19 -45 -45 -81 l-49 -66 -30
25 c-23 20 -40 25 -81 25 -29 0 -58 -4 -66 -9 -7 -5 -28 -4 -47 2 -25 8 -40 7
-58 -2 -13 -8 -29 -10 -35 -7 -12 8 -94 -15 -141 -39 -18 -9 -38 -31 -46 -51
-12 -29 -17 -33 -34 -24 -29 15 -98 12 -137 -7 -22 -10 -41 -29 -49 -49 -18
-42 -18 -49 2 -68 24 -25 53 -19 72 14 20 36 49 47 68 28 21 -21 29 -85 14
-103 -12 -14 -15 -14 -31 1 -23 20 -106 21 -126 1 -14 -13 -12 -19 13 -51 35
-43 80 -60 135 -51 47 8 104 53 113 90 6 23 7 24 42 9 33 -14 42 -14 104 5 37
12 73 28 80 36 11 13 16 14 34 2 83 -55 213 -6 230 87 4 20 12 38 18 42 7 5 9
2 6 -7 -29 -76 -41 -132 -31 -147 13 -21 79 -33 93 -17 5 7 7 15 4 18 -4 3 -4
18 0 32 5 21 11 24 32 19 16 -4 31 -1 43 10 24 22 34 7 21 -29 -13 -35 -5 -62
21 -70 22 -7 59 19 59 42 0 19 17 16 99 -18 60 -25 78 -29 97 -20 17 8 24 19
24 40 0 16 6 31 13 34 9 3 12 -3 9 -22 -3 -19 4 -37 23 -59 23 -27 34 -32 71
-32 93 0 136 52 116 138 -6 26 -9 48 -7 50 1 2 13 -13 25 -33 36 -59 70 -69
96 -30 15 23 15 27 -5 60 -27 46 -27 45 9 45 28 0 29 -1 32 -56 2 -41 8 -60
21 -68 30 -19 51 4 57 64 3 32 10 55 18 58 10 3 13 -5 11 -29 -3 -42 7 -75 25
-82 26 -10 51 0 56 24 l6 24 15 -30 c17 -35 40 -42 63 -20 12 12 16 36 16 94
0 120 8 116 -218 116 l-190 -1 -26 43 c-21 35 -31 43 -56 43 -24 0 -31 -5 -36
-26 -4 -14 -1 -37 5 -50 15 -34 16 -32 -31 -36 -34 -2 -44 -7 -46 -23 -10 -56
-17 -24 -14 60 5 106 -4 121 -53 89 -41 -27 -47 -46 -30 -109 25 -98 -12 -117
-55 -29 -14 28 -31 58 -39 68 -15 18 -56 22 -66 6 -4 -6 -14 -1 -25 12 -17 21
-21 22 -71 11 -30 -6 -56 -9 -58 -7 -3 2 6 18 18 35 24 33 25 58 1 69 -8 4
-25 12 -37 18 -30 16 -52 15 -59 -2z m223 -202 c1 -5 -9 -15 -24 -21 -21 -10
-29 -10 -41 -1 -12 11 -10 14 14 25 31 13 46 12 51 -3z m-413 -20 c39 -39 27
-114 -18 -114 -29 0 -44 17 -52 59 -5 23 -2 37 11 51 22 24 38 25 59 4z m-267
-48 c9 -28 8 -36 -3 -40 -21 -8 -17 -24 9 -29 12 -3 6 -4 -13 -3 -31 2 -35 6
-44 41 -7 32 -6 40 10 52 26 19 29 17 41 -21z m748 -22 c15 -19 25 -37 22 -40
-3 -4 -47 11 -65 22 -3 2 9 54 13 54 1 0 15 -16 30 -36z m715 1 c0 -8 -4 -15
-10 -15 -5 0 -10 7 -10 15 0 8 5 15 10 15 6 0 10 -7 10 -15z m-483 -8 c14 -9
38 -106 28 -115 -3 -4 -11 1 -16 10 -18 32 -42 50 -61 44 -17 -4 -19 -1 -14
17 3 12 6 29 6 37 0 16 36 20 57 7z"/>
<path d="M2924 625 c-10 -8 -27 -15 -36 -15 -28 0 -33 -22 -10 -41 26 -21 27
-27 5 -31 -16 -3 -16 -4 0 -20 12 -12 17 -34 17 -81 0 -49 4 -68 18 -80 10
-10 23 -17 29 -17 18 0 47 41 49 68 1 23 6 28 40 33 74 10 104 39 104 101 0
45 -23 75 -68 88 -53 14 -125 12 -148 -5z m111 -86 c0 -7 -8 -15 -17 -17 -18
-3 -25 18 -11 32 10 10 28 1 28 -15z"/>
<path d="M3253 630 c-24 -10 -30 -25 -13 -35 11 -7 14 -148 3 -159 -4 -4 -14
8 -23 26 -28 60 -90 46 -90 -19 0 -53 45 -93 105 -93 59 0 83 13 101 55 18 43
19 206 2 223 -14 14 -53 15 -85 2z"/>
<path d="M5076 558 c-18 -27 -81 -163 -90 -195 -8 -26 20 -59 60 -69 29 -7 45
6 100 82 l22 29 -14 -64 c-13 -56 -13 -66 0 -86 18 -27 71 -42 91 -25 7 6 30
45 49 87 36 74 37 76 52 55 20 -29 66 -52 102 -52 43 0 76 31 121 114 58 104
54 127 -21 141 -35 7 -38 6 -38 -17 0 -25 -53 -133 -71 -143 -5 -4 -9 10 -9
29 0 26 -6 40 -24 51 -22 15 -56 12 -56 -5 0 -4 -17 -7 -37 -6 -33 1 -39 -3
-61 -39 -13 -22 -21 -32 -18 -22 3 10 9 36 12 58 6 35 4 39 -21 51 -25 11 -29
10 -61 -28 l-34 -39 15 38 c12 28 13 43 5 57 -15 27 -56 26 -74 -2z"/>
<path d="M3600 525 c-8 -9 -10 -29 -5 -57 l7 -43 -24 45 c-16 31 -30 46 -47
48 -30 5 -40 -12 -42 -68 l-1 -45 -14 47 c-17 53 -37 65 -70 43 -29 -19 -28
-7 -4 -140 23 -124 38 -150 85 -141 46 9 65 39 65 105 l1 56 29 -63 c28 -61
29 -62 69 -62 31 0 44 5 56 23 14 21 14 32 0 102 -8 43 -14 79 -12 80 1 1 12
8 25 14 27 14 30 58 5 64 -42 10 -111 6 -123 -8z"/>
<path d="M4583 438 c-48 -39 -91 -76 -95 -82 -14 -21 -8 -46 16 -61 22 -15 27
-15 55 -1 27 14 31 14 45 0 21 -20 20 -23 -6 -51 -30 -32 -16 -76 25 -81 22
-3 47 12 116 67 105 84 117 103 85 135 -21 22 -49 20 -84 -6 -29 -21 -30 -21
-50 -3 l-21 19 36 36 c19 20 35 41 35 48 0 17 -37 52 -54 52 -8 0 -54 -32
-103 -72z"/>
<path d="M3970 474 c-88 -38 -134 -129 -99 -197 57 -111 175 -127 253 -35 20
23 36 48 36 55 0 7 7 13 15 13 17 0 20 16 5 25 -5 3 -10 13 -10 22 0 25 -65
99 -104 117 -41 19 -51 19 -96 0z m88 -96 c20 -20 13 -55 -14 -77 -34 -27 -70
-27 -84 -1 -25 47 61 115 98 78z"/>
<path d="M750 422 c-16 -13 -22 -35 -28 -102 l-7 -85 -40 -5 c-32 -4 -41 -9
-43 -28 -5 -31 15 -52 48 -52 15 0 33 -6 39 -14 12 -15 68 -19 76 -6 3 4 15 5
29 3 33 -7 66 13 66 40 0 29 -18 47 -45 47 -12 0 -24 2 -26 5 -3 2 -1 40 3 82
5 47 5 86 -1 99 -13 29 -46 36 -71 16z"/>
</g>
</svg>
