<?xml version="1.0" standalone="no"?>
<!DOCTYPE svg PUBLIC "-//W3C//DTD SVG 20010904//EN"
 "http://www.w3.org/TR/2001/REC-SVG-20010904/DTD/svg10.dtd">
<svg version="1.0" xmlns="http://www.w3.org/2000/svg"
 width="988.000000pt" height="1280.000000pt" viewBox="0 0 988.000000 1280.000000"
 preserveAspectRatio="xMidYMid meet">
<metadata>
Created by potrace 1.15, written by Peter Selinger 2001-2017
</metadata>
<g transform="translate(0.000000,1280.000000) scale(0.100000,-0.100000)"
fill="#000000" stroke="none">
<path d="M7750 12520 c-845 -65 -1543 -639 -1784 -1467 -113 -389 -122 -838
-26 -1206 11 -43 17 -83 14 -89 -4 -7 -3 -8 4 -4 7 4 12 2 12 -4 0 -6 20 -61
45 -122 24 -61 41 -116 38 -121 -3 -6 -1 -7 4 -4 13 8 26 -20 16 -35 -3 -6 -1
-8 5 -4 13 8 65 -82 55 -97 -3 -6 -1 -7 5 -3 13 8 35 -28 24 -39 -4 -5 -1 -4
7 0 11 6 13 4 8 -8 -3 -9 -3 -16 2 -14 4 1 44 -43 88 -98 44 -55 90 -108 102
-119 11 -10 18 -23 14 -29 -3 -5 -2 -7 4 -4 11 7 139 -102 136 -115 -2 -4 0
-7 5 -6 15 3 42 -15 35 -25 -3 -5 -2 -7 4 -4 5 3 32 -10 59 -29 27 -20 66 -44
87 -55 22 -12 35 -24 31 -31 -4 -7 -3 -8 4 -4 6 4 35 -7 64 -23 147 -82 422
-166 638 -194 136 -18 416 -19 550 -2 299 38 584 138 840 296 137 85 290 197
290 214 0 8 -188 303 -207 327 -13 15 -21 12 -86 -38 -217 -162 -513 -285
-797 -329 -137 -22 -399 -22 -542 0 -540 81 -909 371 -1077 848 -54 153 -72
262 -78 472 -6 212 8 350 53 523 118 455 422 835 818 1023 149 70 269 106 446
133 123 19 452 14 560 -8 127 -27 271 -76 361 -123 94 -49 205 -129 202 -143
-2 -6 3 -9 10 -7 6 1 11 -4 9 -11 -1 -8 1 -11 6 -8 9 5 91 -76 130 -128 12
-15 19 -33 15 -40 -3 -6 -3 -8 2 -4 11 11 38 -29 29 -44 -4 -7 -3 -8 5 -4 17
11 97 -166 126 -280 89 -351 28 -752 -158 -1038 -118 -180 -266 -289 -412
-303 -51 -4 -64 -2 -87 16 -57 45 -63 6 135 891 69 305 128 570 132 588 l7 32
-238 -2 -238 -3 -46 -82 -46 -82 -42 54 c-90 117 -219 175 -389 175 -494 -1
-884 -416 -967 -1030 -14 -108 -17 -264 -5 -360 7 -58 13 -117 13 -132 1 -14
3 -25 5 -22 2 2 14 -24 26 -59 12 -34 25 -71 30 -81 6 -15 5 -17 -5 -11 -9 6
-11 4 -6 -4 5 -7 10 -10 13 -7 6 6 74 -94 78 -114 1 -8 6 -15 11 -15 5 0 30
-16 54 -36 112 -91 251 -133 435 -133 137 0 215 17 307 66 67 36 168 125 224
198 l39 51 7 -28 c4 -15 6 -33 4 -40 -3 -6 -2 -13 2 -15 10 -4 58 -101 54
-110 -1 -4 4 -7 10 -6 7 2 12 -3 10 -10 -1 -8 2 -11 7 -8 10 7 34 -18 25 -26
-3 -3 3 -5 13 -4 10 0 17 -4 16 -9 -1 -6 6 -11 15 -12 9 -1 44 -12 77 -24 54
-21 77 -23 220 -23 133 0 174 4 240 22 393 108 734 490 860 963 66 250 74 591
19 844 -100 464 -398 842 -824 1044 -203 96 -423 152 -670 171 -146 11 -176
11 -320 0z m137 -1486 c47 -27 88 -78 77 -95 -4 -7 -3 -9 3 -6 14 9 42 -62 53
-128 7 -43 -1 -89 -50 -310 -32 -143 -69 -286 -83 -317 -79 -177 -206 -280
-346 -282 -80 0 -120 19 -168 82 -45 59 -55 99 -60 235 -12 293 87 595 248
756 99 98 224 123 326 65z"/>
<path d="M117 12295 c-3 -27 -4 -112 -3 -187 2 -94 -1 -135 -8 -130 -6 3 -5
-2 3 -12 13 -15 13 -19 0 -27 -8 -5 -9 -9 -4 -9 7 0 11 -31 10 -79 0 -74 2
-82 28 -109 16 -17 29 -34 29 -39 0 -4 4 -7 9 -6 14 4 62 -74 53 -88 -4 -7 -3
-10 2 -6 6 3 33 -41 62 -99 55 -111 58 -119 40 -108 -7 4 -8 3 -4 -5 4 -6 11
-9 14 -7 9 5 218 -403 216 -421 -1 -7 1 -11 5 -8 6 3 71 -116 71 -131 0 -3 -5
-2 -12 2 -7 4 -8 3 -4 -5 4 -6 11 -9 15 -7 11 7 43 -63 35 -76 -5 -7 -2 -8 6
-3 10 6 12 4 7 -9 -4 -9 -3 -15 2 -12 8 5 59 -93 53 -102 -2 -3 0 -8 5 -11 18
-12 54 -84 49 -98 -3 -8 -2 -12 3 -9 11 7 23 -22 14 -36 -3 -6 -2 -8 4 -5 6 4
25 -22 43 -57 l32 -64 -4 -264 c-6 -303 -12 -334 -81 -393 -22 -19 -47 -35
-54 -35 -10 0 -13 -58 -13 -300 l0 -300 653 0 c369 0 658 4 666 9 12 8 15 60
15 296 l1 287 -35 18 c-46 23 -64 45 -91 105 -21 47 -22 68 -26 318 l-3 268
44 82 c44 84 158 305 446 872 176 344 215 412 263 449 l31 24 0 288 1 288
-512 1 c-418 0 -514 -2 -518 -13 -3 -8 -5 -134 -5 -281 0 -147 -3 -270 -6
-274 -3 -3 -8 -29 -10 -59 -4 -64 -32 -163 -67 -238 -13 -30 -39 -89 -56 -130
-59 -140 -58 -138 -67 -115 -4 11 -36 84 -71 162 -68 153 -98 252 -107 348 -3
33 -5 182 -6 330 l0 270 -579 0 -579 0 -5 -50z"/>
<path d="M3038 12342 l-28 -3 0 -652 0 -652 342 2 c189 0 355 2 370 2 l26 1 4
213 c4 237 13 276 77 329 48 41 90 49 274 55 l168 6 -112 -174 c-62 -96 -146
-227 -188 -292 -42 -64 -123 -190 -181 -280 -94 -147 -385 -598 -465 -722
-150 -232 -284 -439 -312 -481 l-33 -51 0 -302 0 -301 1268 2 1267 3 3 688 2
687 -384 0 -384 0 -4 -212 c-7 -295 -30 -362 -147 -417 -52 -24 -68 -26 -213
-29 -87 -2 -158 -1 -158 2 0 5 89 147 663 1051 144 226 339 533 434 683 l173
274 -2 286 -3 286 -1215 0 c-668 1 -1227 0 -1242 -2z"/>
<path d="M586 10897 c3 -10 9 -15 12 -12 3 3 0 11 -7 18 -10 9 -11 8 -5 -6z"/>
<path d="M640 10791 c0 -6 4 -13 10 -16 6 -3 7 1 4 9 -7 18 -14 21 -14 7z"/>
<path d="M1210 8049 c-605 -55 -869 -296 -935 -855 -19 -163 -23 -1513 -5
-1663 7 -51 9 -99 6 -107 -3 -8 -2 -13 3 -10 4 3 11 -15 15 -41 3 -25 15 -76
26 -113 11 -37 19 -74 17 -81 -2 -8 -2 -10 1 -6 2 4 17 -20 33 -53 16 -34 26
-67 22 -72 -3 -7 -1 -8 5 -4 11 7 17 -6 13 -27 -1 -5 3 -6 8 -3 10 6 58 -63
53 -77 -1 -4 3 -6 10 -5 7 2 12 -4 13 -12 0 -8 5 -15 12 -15 15 0 28 -13 28
-28 0 -7 5 -12 10 -12 22 -1 55 -27 49 -38 -4 -7 -4 -9 1 -5 12 11 67 -21 59
-34 -4 -7 -3 -8 4 -4 6 4 33 -4 59 -17 155 -79 369 -117 690 -124 738 -17
1095 148 1239 571 32 94 62 256 73 396 5 63 8 430 7 815 -3 651 -5 709 -24
830 -82 517 -346 742 -932 794 -124 11 -439 11 -560 0z m382 -716 c22 -12 43
-39 63 -78 l30 -60 0 -835 c0 -781 -1 -838 -18 -887 -20 -56 -69 -108 -113
-119 -13 -4 -52 -4 -84 -2 -98 7 -150 61 -170 176 -16 100 -9 1653 8 1705 17
50 67 105 106 117 45 14 141 5 178 -17z"/>
<path d="M3755 8046 c-295 -59 -411 -229 -374 -548 7 -62 13 -127 13 -145 1
-17 4 -29 7 -27 3 2 13 -38 22 -89 8 -51 54 -301 102 -557 47 -256 84 -473 81
-483 -2 -9 -1 -15 4 -12 4 2 13 -28 20 -68 7 -40 16 -90 20 -112 4 -22 15 -85
25 -140 28 -159 -2 -142 250 -140 119 2 219 5 222 9 6 6 53 255 232 1226 101
546 102 558 103 657 0 224 -105 359 -327 418 -83 23 -309 29 -400 11z"/>
<path d="M6075 8054 c-126 -11 -290 -38 -410 -69 -195 -50 -322 -103 -502
-213 l-93 -56 0 -423 0 -423 475 0 c373 0 475 3 476 13 1 6 3 71 4 142 5 244
53 325 195 325 80 0 135 -29 170 -92 35 -60 36 -192 3 -254 -34 -63 -127 -141
-275 -228 -268 -160 -303 -182 -369 -244 -126 -118 -149 -198 -156 -548 l-5
-252 470 2 c259 0 473 3 476 6 2 3 10 44 15 90 21 164 72 225 303 354 359 203
450 281 533 461 56 120 67 181 72 390 4 167 2 203 -16 293 -42 203 -110 332
-240 454 -197 185 -454 266 -866 273 -115 1 -232 1 -260 -1z"/>
<path d="M8347 7716 c-130 -47 -232 -152 -277 -287 -31 -92 -25 -219 15 -304
16 -33 29 -65 30 -72 0 -6 4 -15 9 -20 5 -5 6 -2 1 7 -6 11 -5 12 4 4 7 -6 13
-19 15 -28 1 -9 6 -16 10 -15 4 0 20 -10 34 -24 15 -13 39 -32 54 -42 15 -9
26 -20 24 -24 -3 -4 3 -7 12 -8 9 -1 42 -11 72 -22 75 -28 196 -28 275 -1 162
56 277 189 306 358 32 181 -78 381 -254 463 -63 29 -84 34 -167 36 -81 3 -105
0 -163 -21z"/>
<path d="M8425 6418 c-133 -17 -271 -122 -335 -252 -42 -86 -53 -214 -26 -296
9 -28 14 -56 10 -63 -4 -7 -4 -9 1 -5 9 9 61 -62 56 -77 -1 -5 1 -7 5 -2 4 4
17 -2 28 -12 39 -37 134 -79 205 -92 39 -6 71 -17 71 -22 0 -27 -121 -231
-199 -335 l-54 -73 39 -40 c21 -22 39 -43 39 -47 0 -4 2 -6 5 -5 3 1 27 -18
54 -42 l49 -43 73 65 c342 311 522 658 485 941 -35 271 -242 435 -506 400z"/>
<path d="M3793 5519 c-125 -40 -245 -162 -288 -294 -25 -75 -25 -194 0 -258 9
-25 14 -51 9 -59 -4 -7 -4 -10 1 -6 5 5 19 -9 33 -30 106 -161 281 -244 449
-213 141 26 269 124 334 256 33 67 34 74 34 185 0 114 -1 117 -38 192 -77 156
-225 249 -396 247 -47 0 -100 -8 -138 -20z"/>
<path d="M6020 5529 c-75 -15 -171 -68 -230 -129 -120 -122 -159 -287 -106
-445 13 -38 22 -73 19 -78 -2 -4 0 -6 5 -5 16 5 73 -80 59 -86 -7 -3 -3 -4 8
-3 11 1 20 -4 20 -12 0 -8 7 -15 15 -16 8 -2 42 -19 75 -39 80 -49 123 -60
230 -60 84 0 96 2 168 36 280 134 353 482 146 703 -109 116 -255 164 -409 134z"/>
<path d="M1137 4143 c-4 -3 -7 -59 -7 -124 l0 -118 -37 -6 c-139 -23 -286 -68
-392 -121 -100 -49 -126 -67 -201 -143 -115 -115 -174 -229 -217 -416 -16 -70
-35 -475 -22 -475 7 0 21 -86 23 -137 1 -17 4 -29 7 -27 9 5 29 -68 22 -79 -3
-6 -2 -7 4 -4 5 3 18 -11 27 -31 10 -20 29 -54 44 -76 14 -21 27 -45 28 -53 2
-8 6 -18 10 -21 4 -4 4 2 0 13 -6 17 -4 17 18 -4 14 -13 23 -28 20 -33 -3 -5
-2 -7 3 -6 12 4 84 -53 78 -62 -3 -4 3 -7 13 -6 9 0 16 -5 14 -12 -1 -8 2 -11
8 -7 14 9 52 -14 44 -27 -4 -7 -3 -8 4 -4 6 4 37 -6 69 -22 90 -46 238 -98
483 -172 276 -84 313 -96 372 -126 66 -34 110 -74 138 -131 22 -42 25 -61 25
-154 0 -97 -2 -110 -30 -164 -23 -46 -40 -64 -74 -82 -81 -43 -203 -22 -248
43 -39 56 -46 95 -51 282 l-4 182 -498 0 -499 0 -5 -52 c-3 -29 -4 -227 -3
-439 1 -290 5 -390 14 -401 7 -8 10 -17 7 -20 -3 -3 3 -5 13 -4 9 0 18 -4 18
-11 0 -6 4 -15 9 -20 5 -5 6 -3 2 5 -8 14 10 17 19 2 13 -21 184 -105 289
-142 102 -36 327 -97 419 -112 l37 -7 0 -139 0 -140 390 0 390 0 0 138 0 137
114 27 c390 94 618 303 705 645 43 167 49 428 14 628 -40 230 -123 370 -287
484 -136 94 -287 152 -701 270 -386 109 -449 157 -450 341 0 72 4 92 25 130
32 57 92 90 165 90 55 0 140 -33 130 -50 -4 -6 -1 -9 6 -8 16 4 60 -72 55 -95
-2 -9 -1 -15 4 -12 12 7 20 -61 20 -182 l0 -113 469 0 c258 0 476 3 485 6 14
5 16 50 16 403 l0 396 -102 57 c-173 96 -338 159 -625 237 l-43 12 0 134 0
135 -383 0 c-211 0 -387 -3 -390 -7z"/>
<path d="M7339 3940 c-1 -19 -1 -140 -1 -267 1 -128 -1 -233 -4 -233 -3 0
-110 56 -239 125 -128 69 -238 125 -243 125 -6 0 -49 -73 -96 -161 -80 -150
-85 -163 -69 -175 10 -7 26 -16 36 -19 9 -4 15 -10 13 -14 -3 -4 3 -7 12 -8 9
-1 58 -26 109 -57 51 -30 106 -62 123 -71 18 -9 28 -21 24 -27 -4 -7 -3 -8 4
-4 7 4 39 -8 72 -27 l60 -33 -235 -136 -234 -135 31 -59 c90 -175 140 -264
147 -264 5 0 68 33 142 73 74 41 182 99 241 131 l106 57 -1 -273 -1 -273 200
0 199 0 0 273 c0 149 1 272 3 272 14 0 91 -58 85 -65 -5 -4 -2 -5 5 -1 15 9
93 -34 85 -47 -3 -6 -1 -7 5 -3 6 3 73 -27 149 -69 76 -41 142 -74 148 -72 10
3 185 305 185 319 0 7 -5 10 -215 128 -258 144 -257 144 -240 156 8 6 114 67
235 134 121 68 220 127 220 131 0 8 -167 309 -176 318 -6 6 -65 -24 -325 -166
-41 -23 -92 -50 -114 -62 l-40 -21 -5 267 -5 268 -197 0 -198 1 -1 -36z"/>
<path d="M4496 3791 c-4 -5 -37 -99 -75 -208 -38 -109 -95 -270 -126 -358 -31
-88 -61 -175 -66 -192 l-10 -33 -279 0 -280 0 -15 -37 c-30 -72 -195 -529
-195 -541 0 -9 69 -12 271 -12 150 0 273 -1 275 -2 1 -2 -22 -75 -52 -163 -30
-88 -65 -189 -77 -225 l-22 -64 -275 -1 -275 0 -44 -115 c-63 -166 -171 -462
-171 -469 0 -3 124 -6 275 -5 151 0 275 -3 275 -7 0 -4 -16 -52 -36 -106 -20
-54 -51 -141 -69 -193 -19 -52 -63 -178 -99 -279 -36 -101 -66 -190 -66 -197
0 -12 52 -14 311 -12 l311 3 18 50 c43 118 220 616 241 676 l23 67 243 -1
c134 -1 243 -2 243 -4 0 -4 -167 -474 -226 -636 -30 -81 -54 -150 -54 -152 0
-3 141 -5 314 -5 l314 0 32 88 c34 91 73 203 185 518 l68 191 274 0 c150 0
275 2 277 4 4 5 216 574 216 581 0 3 -122 5 -270 5 -149 0 -273 2 -276 6 -4 3
29 105 72 226 l79 221 140 1 c77 0 190 0 251 -1 61 -1 122 2 135 5 21 5 37 39
126 278 55 150 104 280 108 290 7 16 -10 17 -270 17 -259 0 -277 1 -273 18 3
9 64 185 137 389 72 205 131 377 131 383 0 7 -106 10 -310 10 l-310 0 -15 -32
c-8 -18 -49 -132 -90 -253 -42 -121 -87 -249 -100 -285 -13 -36 -37 -102 -52
-147 l-28 -83 -242 0 c-134 0 -243 2 -243 4 0 3 86 250 228 654 l50 142 -313
0 c-178 0 -316 -4 -319 -9z m586 -1381 l56 0 -19 -52 c-23 -61 -103 -282 -126
-348 -9 -25 -20 -47 -24 -50 -9 -6 -498 -5 -504 1 -3 4 127 373 154 434 8 19
17 20 207 18 110 -2 224 -3 256 -3z"/>
<path d="M1640 3151 c0 -6 4 -13 10 -16 6 -3 7 1 4 9 -7 18 -14 21 -14 7z"/>
</g>
</svg>
